<?xml version="1.0" encoding="UTF-8"?>
<!DOCTYPE svg PUBLIC "-//W3C//DTD SVG 1.1//EN" "http://www.w3.org/Graphics/SVG/1.1/DTD/svg11.dtd">
<!-- Creator: CorelDRAW -->
<svg xmlns="http://www.w3.org/2000/svg" xml:space="preserve" width="273px" height="76px" version="1.1" shape-rendering="geometricPrecision" text-rendering="geometricPrecision" image-rendering="optimizeQuality" fill-rule="evenodd" clip-rule="evenodd"
viewBox="0 0 161.518 44.894"
 xmlns:xlink="http://www.w3.org/1999/xlink"
 xmlns:xodm="http://www.corel.com/coreldraw/odm/2003">
 <g id="Layer_x0020_1">
  <metadata id="CorelCorpID_0Corel-Layer"/>
  <g id="_2330036082432">
   <polygon fill="#53AF41" fill-rule="nonzero" points="0,35.054 161.517,35.054 161.517,36.149 0,36.149 "/>
   <path fill="#53AF41" fill-rule="nonzero" d="M62.106 30.082l17.956 -27.923 9.345 0 5.1 27.923 -8.821 0 -0.831 -5.704 -10.706 0 -3.448 5.704 -8.595 0zm22.046 -10.767l-1.362 -9.199 -5.606 9.199 6.968 0zm43.31 -3.598c-1.082,4.699 -3.458,8.36 -7.118,10.979 -3.669,2.618 -8.116,3.93 -13.34,3.93 -2.447,0 -4.648,-0.256 -6.619,-0.768 -1.962,-0.512 -3.42,-0.973 -4.365,-1.389l1.455 -6.318 0.805 0c0.241,0.211 0.658,0.537 1.252,0.985 0.586,0.442 1.19,0.807 1.797,1.095 0.798,0.371 1.681,0.679 2.643,0.915 0.963,0.237 2.053,0.359 3.273,0.359 0.962,0 1.997,-0.115 3.104,-0.339 1.1,-0.225 2.16,-0.615 3.181,-1.178 1.05,-0.589 1.997,-1.338 2.841,-2.254 0.843,-0.909 1.525,-2.106 2.028,-3.578l-13.592 0 1.226 -5.326 13.412 0c0.019,-1.101 -0.165,-2.036 -0.551,-2.804 -0.386,-0.768 -0.944,-1.402 -1.666,-1.901 -0.717,-0.487 -1.518,-0.845 -2.406,-1.063 -0.889,-0.217 -1.818,-0.326 -2.795,-0.326 -1.181,0 -2.289,0.121 -3.33,0.364 -1.041,0.244 -2.044,0.557 -2.998,0.929 -0.924,0.378 -1.741,0.768 -2.443,1.171 -0.705,0.41 -1.263,0.73 -1.67,0.967l-0.891 0 1.467 -6.376c1.606,-0.589 3.429,-1.101 5.483,-1.53 2.053,-0.429 4.27,-0.646 6.632,-0.646 5.013,0 8.709,1.267 11.099,3.795 2.388,2.536 3.085,5.967 2.086,10.307zm16.338 14.909c-5.115,0 -8.89,-1.268 -11.318,-3.796 -2.428,-2.535 -3.11,-6.094 -2.054,-10.684 1.019,-4.424 3.34,-7.951 6.964,-10.582 3.625,-2.631 7.995,-3.949 13.109,-3.949 1.361,0 2.566,0.064 3.626,0.185 1.057,0.128 2.058,0.301 2.999,0.525 0.73,0.192 1.524,0.448 2.365,0.768 0.84,0.327 1.518,0.608 2.027,0.845l-1.533 6.658 -0.868 0c-0.345,-0.301 -0.787,-0.66 -1.317,-1.076 -0.528,-0.422 -1.145,-0.832 -1.844,-1.229 -0.705,-0.403 -1.502,-0.742 -2.392,-1.024 -0.889,-0.282 -1.85,-0.422 -2.89,-0.422 -1.236,0 -2.406,0.16 -3.513,0.48 -1.105,0.32 -2.218,0.87 -3.329,1.658 -1.016,0.71 -1.943,1.677 -2.761,2.887 -0.819,1.216 -1.422,2.643 -1.802,4.295 -0.401,1.741 -0.455,3.201 -0.165,4.385 0.3,1.178 0.816,2.132 1.572,2.855 0.722,0.704 1.591,1.21 2.613,1.524 1.023,0.313 2.074,0.467 3.161,0.467 1.127,0 2.241,-0.154 3.337,-0.461 1.095,-0.307 2.033,-0.647 2.822,-1.018 0.857,-0.39 1.621,-0.787 2.291,-1.184 0.672,-0.403 1.261,-0.755 1.755,-1.069l0.782 0 -1.51 6.562c-0.68,0.236 -1.471,0.512 -2.363,0.819 -0.898,0.301 -1.803,0.563 -2.728,0.774 -1.124,0.263 -2.17,0.461 -3.141,0.602 -0.962,0.135 -2.26,0.205 -3.895,0.205z"/>
   <path fill="#E31E24" d="M20.274 11.574c0.473,0.005 0.934,0.058 1.379,0.156l2.665 -11.73c1.245,0.09 2.448,0.334 3.592,0.711l-5.045 11.407c0.382,0.164 0.746,0.362 1.089,0.59l7.147 -10.509c1.181,0.731 2.254,1.62 3.19,2.638l-9.245 8.776c0.188,0.192 0.365,0.395 0.529,0.608l10.136 -7.582c0.928,1.38 1.633,2.921 2.064,4.571l-11.318 4.52c0.115,0.274 0.213,0.557 0.292,0.848l11.501 -2.951c0.006,0.173 0.009,0.649 0.009,1.368 0,0.72 -0.158,2.494 -0.455,3.669l-10.819 -0.267c-0.002,0.349 -0.031,0.692 -0.084,1.028l9.965 1.73c-0.806,1.442 -2.352,3.883 -3.569,4.985l-7.239 -4.372c-0.17,0.291 -0.362,0.568 -0.573,0.829l6.007 4.944c-0.989,0.654 -2.059,1.195 -3.192,1.604l-4.009 -5.389c-0.157,0.119 -0.319,0.231 -0.486,0.337l3.347 5.413c-1.111,0.302 -2.271,0.48 -3.467,0.517l-1.523 -5.181c-0.188,0.057 -0.379,0.106 -0.574,0.147l1.02 5.029c-1.004,-0.041 -1.983,-0.181 -2.928,-0.411l0.225 -4.483c-0.199,-0.009 -0.395,-0.026 -0.589,-0.052l-0.585 4.27c-0.7,-0.22 -1.812,-0.691 -2.465,-1.007l1.479 -3.668c-0.278,-0.109 -0.547,-0.236 -0.806,-0.379l-1.896 3.439c-0.159,-0.107 -1.905,-1.679 -2.059,-1.792l2.573 -2.658c-0.21,-0.199 -0.408,-0.411 -0.591,-0.634l-2.927 2.381c-0.504,-0.561 -0.966,-1.161 -1.383,-1.793l3.522 -1.787c-0.136,-0.264 -0.255,-0.537 -0.356,-0.819l-3.895 1.375c-0.498,-0.941 -0.97,-2.435 -1.262,-3.479l4.765 -0.057c-0.001,-0.037 -0.001,-0.074 -0.001,-0.112 0,-0.358 0.028,-0.711 0.082,-1.055l-5.251 -0.835c-0.047,-0.483 -0.072,-0.972 -0.072,-1.467 0,-0.732 0.054,-1.451 0.156,-2.156l5.713 2.669c0.153,-0.33 0.332,-0.646 0.535,-0.945l-5.762 -3.908c0.371,-1.226 0.895,-2.386 1.55,-3.459l5.337 6.086c0.327,-0.29 0.682,-0.549 1.06,-0.772l-4.532 -7.769c0.865,-0.925 1.844,-1.742 2.916,-2.426l2.981 9.582c0.294,-0.095 0.597,-0.17 0.908,-0.224l-1.747 -10.495c1.016,-0.438 2.089,-0.767 3.204,-0.972l-0.233 11.368z"/>
   <path fill="#63A43B" fill-rule="nonzero" d="M67.223 44.809l-1.222 0 -1.091 -1.647 -0.259 0 0 1.647 -1.025 0 0 -4.078 1.025 0 0 1.662c0.16,-0.007 0.279,-0.043 0.359,-0.107 0.078,-0.064 0.173,-0.204 0.283,-0.421 0.032,-0.065 0.068,-0.14 0.109,-0.228 0.042,-0.087 0.078,-0.164 0.109,-0.23 0.119,-0.246 0.264,-0.422 0.435,-0.528 0.17,-0.104 0.395,-0.157 0.675,-0.157 0.09,0 0.166,0.001 0.227,0.004 0.06,0.003 0.106,0.005 0.139,0.005l0 0.873 -0.235 0c-0.117,0 -0.219,0.036 -0.306,0.108 -0.086,0.072 -0.175,0.216 -0.264,0.432 -0.071,0.171 -0.138,0.301 -0.202,0.39 -0.062,0.089 -0.121,0.148 -0.177,0.18l1.42 2.095zm13.272 -2.038c0,0.66 -0.175,1.178 -0.528,1.556 -0.352,0.378 -0.836,0.567 -1.449,0.567 -0.616,0 -1.098,-0.192 -1.449,-0.574 -0.35,-0.383 -0.526,-0.899 -0.526,-1.549 0,-0.656 0.176,-1.174 0.526,-1.554 0.351,-0.381 0.833,-0.571 1.449,-0.571 0.613,0 1.097,0.189 1.449,0.568 0.353,0.379 0.528,0.898 0.528,1.557zm-1.057 -0.002c0,-0.243 -0.025,-0.451 -0.076,-0.621 -0.049,-0.171 -0.117,-0.311 -0.201,-0.421 -0.087,-0.111 -0.187,-0.191 -0.297,-0.239 -0.11,-0.049 -0.225,-0.073 -0.344,-0.073 -0.125,0 -0.239,0.023 -0.342,0.067 -0.102,0.045 -0.201,0.125 -0.296,0.24 -0.084,0.105 -0.152,0.247 -0.203,0.421 -0.053,0.176 -0.079,0.386 -0.079,0.628 0,0.25 0.024,0.458 0.074,0.623 0.049,0.166 0.117,0.304 0.203,0.415 0.088,0.113 0.187,0.195 0.298,0.242 0.111,0.049 0.227,0.073 0.345,0.073 0.121,0 0.237,-0.026 0.351,-0.078 0.114,-0.052 0.211,-0.133 0.293,-0.242 0.088,-0.119 0.155,-0.257 0.203,-0.415 0.048,-0.158 0.071,-0.365 0.071,-0.62zm15.056 2.04l-1.02 0 0 -2.703 -0.742 1.744 -0.698 0 -0.742 -1.744 0 2.703 -0.964 0 0 -4.078 1.179 0 0.905 2.013 0.901 -2.013 1.181 0 0 4.078zm13.513 0l-1.024 0 0 -3.3 -1.394 0 0 3.3 -1.025 0 0 -4.078 3.443 0 0 4.078zm13.582 0l-1.024 0 0 -3.3 -1.03 0c-0.007,0.159 -0.013,0.307 -0.02,0.445 -0.007,0.137 -0.013,0.269 -0.021,0.392 -0.019,0.357 -0.053,0.664 -0.098,0.922 -0.046,0.258 -0.098,0.469 -0.156,0.634 -0.065,0.176 -0.129,0.313 -0.194,0.413 -0.067,0.101 -0.129,0.18 -0.187,0.238 -0.088,0.088 -0.198,0.157 -0.328,0.207 -0.132,0.051 -0.262,0.076 -0.389,0.076 -0.087,0 -0.181,-0.004 -0.283,-0.011 -0.102,-0.008 -0.167,-0.013 -0.194,-0.016l0 -0.901 0.038 0c0.019,0.001 0.037,0.003 0.053,0.005 0.018,0.002 0.041,0.003 0.068,0.003 0.045,0 0.103,-0.008 0.175,-0.022 0.071,-0.015 0.125,-0.039 0.161,-0.074 0.132,-0.124 0.222,-0.316 0.27,-0.576 0.048,-0.26 0.086,-0.636 0.111,-1.128 0.011,-0.224 0.018,-0.426 0.02,-0.605 0.003,-0.178 0.01,-0.439 0.021,-0.78l3.007 0 0 4.078zm10.071 0l0 -4.078 2.758 0 0 0.778 -1.739 0 0 0.715 1.603 0 0 0.778 -1.603 0 0 1.029 1.739 0 0 0.778 -2.758 0zm16.275 0l-1.222 0 -1.091 -1.647 -0.259 0 0 1.647 -1.025 0 0 -4.078 1.025 0 0 1.662c0.16,-0.007 0.279,-0.043 0.359,-0.107 0.078,-0.064 0.173,-0.204 0.283,-0.421 0.032,-0.065 0.068,-0.14 0.109,-0.228 0.041,-0.087 0.078,-0.164 0.109,-0.23 0.119,-0.246 0.264,-0.422 0.435,-0.528 0.17,-0.104 0.395,-0.157 0.675,-0.157 0.09,0 0.166,0.001 0.227,0.004 0.06,0.003 0.106,0.005 0.139,0.005l0 0.873 -0.235 0c-0.117,0 -0.219,0.036 -0.306,0.108 -0.086,0.072 -0.175,0.216 -0.264,0.432 -0.071,0.171 -0.138,0.301 -0.202,0.39 -0.062,0.089 -0.121,0.148 -0.177,0.18l1.42 2.095zm10.342 0l0 -3.3 -1.206 0 0 -0.778 3.435 0 0 0.778 -1.205 0 0 3.3 -1.024 0z"/>
  </g>
 </g>
</svg>
