<svg width="257" height="100" viewBox="0 0 257 100" fill="none" xmlns="http://www.w3.org/2000/svg">
<path d="M39.8868 47.8307C36.962 45.5526 34.03 43.2847 31.1013 41.0118C30.7932 40.6901 33.8594 39.6707 34.2162 39.6383C35.5215 39.5202 36.8677 39.8801 37.944 40.6073C40.3239 42.2159 40.9811 45.2977 39.8868 47.8307ZM38.911 49.2677C37.0902 51.6942 33.8572 53.2739 30.7682 53.1525C23.7505 52.8812 22.0386 45.3757 22.6614 39.8357C22.7962 38.6416 23.0033 37.4595 23.2126 36.2793C24.0682 36.9143 24.899 37.5791 25.7344 38.2353C26.3695 38.7337 27.4161 39.078 27.0331 39.8945C26.3932 41.2551 26.2004 42.7304 26.385 44.2114C26.7504 47.11 29.1634 49.3265 32.1251 49.6021C32.4838 49.6368 36.0141 49.483 35.3258 48.6269C35.0413 48.2743 32.6789 48.7661 32.0766 48.5788C29.2164 47.6878 28.7734 43.9558 30.2901 41.7902C31.8646 43.0272 33.4465 44.2595 35.027 45.4917C35.9063 46.1785 36.7838 46.8654 37.6597 47.5522C38.3049 48.06 39.5017 48.4836 38.911 49.2677ZM19.1469 31.318L19.047 31.6072C16.818 30.1107 15.0372 28.0178 13.99 25.5818C13.3791 24.1644 12.3736 20.3535 14.8718 19.9555C16.9171 19.6318 18.2448 22.5953 18.7348 24.0738C19.5055 26.402 19.5212 28.9173 19.1469 31.318ZM48.4572 55.9927C47.4759 52.9349 44.1097 51.1438 41.6963 49.2528C40.7106 48.4797 40.7118 48.5437 41.1324 47.4273C41.3851 46.7555 41.5757 46.0621 41.6814 45.3561C41.8788 44.0328 41.7797 42.673 41.3168 41.4077C39.3159 35.9593 31.9649 34.1177 27.9368 38.5454C26.9625 37.7754 25.9733 37.0273 24.9886 36.2731C24.5852 35.9633 23.3571 35.3532 23.4156 34.7688C23.5822 33.0859 23.5361 31.3824 23.2547 29.7139C22.5895 25.7579 20.543 22.0882 17.21 19.6962C15.6184 18.5534 13.8007 17.3537 11.8727 16.8395C9.99115 16.3397 9.66948 18.016 9.71201 19.5069C9.82846 23.5226 12.4896 27.3188 15.337 30.0223C16.2621 30.9014 19.0292 32.3037 18.8723 33.6154C18.6433 35.5202 18.4371 37.4346 18.3912 39.3507C18.3068 42.9009 18.7218 46.6346 21.0218 49.5282C25.8095 55.5565 35.5207 56.029 40.1344 49.5231C42.665 51.4364 46.9484 53.5823 47.4569 56.9931C47.6675 58.4033 47.1205 59.7879 46.1933 60.8589C45.4312 61.7371 43.592 63.1526 42.391 62.1991C44.964 60.4939 43.8406 56.6993 40.7725 56.4642C37.6718 56.2284 36.431 59.7398 37.939 62.0191C41.4993 67.3999 50.1643 61.3128 48.4572 55.9927Z" fill="#FFD699"/>
<path fill-rule="evenodd" clip-rule="evenodd" d="M217.357 50.2264C217.441 50.7974 217.524 51.3711 217.61 51.9448C217.997 51.8309 218.353 51.7002 218.741 51.5856C218.668 51.0854 218.59 50.5553 218.52 50.0635L218.468 49.8623C218.099 49.9855 217.717 50.1011 217.357 50.2264ZM217.986 46.2855L218.492 46.2147C218.6 46.9647 218.712 47.7159 218.822 48.4686C219.108 48.3922 219.351 48.2937 219.629 48.2176C219.689 48.6228 219.75 49.0313 219.809 49.4384C219.534 49.5218 219.27 49.6114 219.001 49.6965C219.086 50.2689 219.17 50.842 219.253 51.4157C219.508 51.3569 219.805 51.2274 220.064 51.1713C220.124 51.5875 220.186 52.0045 220.246 52.4215C219.978 52.5086 219.715 52.5988 219.44 52.6814C219.55 53.4347 219.661 54.1899 219.771 54.9432L219.242 55.0069C219.139 54.2875 219.032 53.5668 218.927 52.8443C218.546 52.9651 218.168 53.0852 217.795 53.2111C217.91 53.9956 218.026 54.7795 218.14 55.5612L217.612 55.637C217.503 54.8849 217.393 54.1337 217.281 53.3837C217.012 53.4617 216.731 53.5712 216.474 53.6347C216.414 53.2177 216.351 52.8003 216.292 52.3845C216.559 52.2968 216.825 52.207 217.098 52.1238C217.015 51.5483 216.928 50.9746 216.845 50.3988C216.564 50.4744 216.321 50.5734 216.037 50.6492C215.978 50.244 215.918 49.8406 215.858 49.4347C216.116 49.3412 216.403 49.2623 216.666 49.1701C216.548 48.3858 216.435 47.6013 216.32 46.8175L216.845 46.7438C216.957 47.495 217.066 48.2469 217.178 48.9983C217.558 48.8767 217.937 48.7551 218.309 48.6325C218.195 47.8592 218.08 47.0838 217.968 46.3111L217.986 46.2855Z" fill="#FFD699"/>
<path d="M170.561 35.2478L170.563 35.1206C170.681 34.3058 170.557 33.4868 170.49 32.6671C170.432 31.9645 170.521 31.2036 170.926 30.4695L171.298 30.0663C171.556 30.8863 171.811 31.7474 171.791 32.5987C171.776 33.4569 171.601 34.4005 170.561 35.2478ZM170.367 35.8991L170.453 35.6611L170.692 35.5091C171.286 35.0888 171.816 34.5176 172.106 33.917C172.408 33.2897 172.496 32.6113 172.508 31.9652C172.52 31.3332 172.454 30.6745 172.383 30.0399C172.331 29.574 172.354 29.1231 172.592 28.6549L172.861 28.3632L172.586 28.1204L165.234 36.127C165.142 35.4183 164.398 34.7255 163.363 34.4592C162.117 34.1396 160.925 34.5564 160.697 35.3912C160.473 36.2255 161.298 37.1648 162.544 37.4845C163.649 37.7698 164.712 37.4738 165.094 36.8208L169.264 32.2794C169.42 32.8225 169.585 33.327 169.743 33.8617C169.981 34.673 170.23 35.5719 169.708 36.4325C169.162 37.3351 168.245 37.9294 167.492 38.1887L167.33 38.2917L167.797 38.2934C168.276 38.1175 168.743 37.8766 169.177 37.5233C169.79 37.0225 170.181 36.4294 170.367 35.8991Z" fill="#FFD699"/>
<path d="M62.5596 17.1329L62.6771 17.2836C63.2832 18.3358 64.1779 19.1795 65.0075 20.0784C65.7177 20.844 66.3065 21.8093 66.5058 23.0162L66.4445 23.8106C65.3927 23.0792 64.3079 22.2998 63.5523 21.2949C62.7877 20.2769 62.126 19.0267 62.5596 17.1329ZM62.1933 16.209L62.312 16.5567L62.1716 16.9403C61.8646 17.9479 61.7686 19.0761 61.9819 20.0278C62.2036 21.023 62.7173 21.889 63.2967 22.6543C63.8618 23.401 64.5396 24.1105 65.2036 24.7889C65.6878 25.2852 66.0743 25.8306 66.2246 26.5833L66.1789 27.159L66.7199 27.1999L67.9651 11.471C68.7197 12.2138 70.2207 12.3709 71.6709 11.7817C73.4152 11.0712 74.4242 9.54558 73.9229 8.37486C73.4228 7.20269 71.6028 6.83234 69.8586 7.54291C68.3115 8.17152 67.3444 9.44339 67.4943 10.539L66.7872 19.4609C66.1096 18.9658 65.4547 18.5181 64.7838 18.036C63.7629 17.298 62.6525 16.4657 62.4725 15.0094C62.2835 13.4824 62.8096 11.9913 63.4493 11.0317L63.5432 10.7687C63.2775 10.6184 63.09 11.0303 62.9969 11.1773C62.6013 11.7991 62.2767 12.4849 62.0938 13.2786C61.8394 14.3971 61.9255 15.4271 62.1933 16.209Z" fill="#FFD699"/>
<path d="M188.214 49.032L183.391 57.1849L183.571 57.2877L188.218 49.4349C188.354 49.816 188.851 50.1151 189.459 50.1465C190.19 50.1822 190.803 49.8146 190.829 49.3257C190.856 48.8356 190.283 48.4081 189.552 48.3703C188.905 48.3383 188.348 48.6263 188.214 49.032Z" fill="#FFD699"/>
<path d="M179.777 45.1501L174.95 53.3036L175.134 53.407L179.781 45.5516C179.917 45.936 180.415 46.2351 181.022 46.2638C181.752 46.3016 182.365 45.9327 182.391 45.4426C182.415 44.9525 181.843 44.5254 181.114 44.4897C180.466 44.4577 179.911 44.7423 179.777 45.1501Z" fill="#FFD699"/>
<path d="M183.431 50.7382L180.54 55.6242L180.724 55.727L183.436 51.1397C183.571 51.5222 184.07 51.8214 184.677 51.8519C185.406 51.8872 186.02 51.5206 186.046 51.0305C186.072 50.5406 185.501 50.1135 184.771 50.0757C184.122 50.0445 183.568 50.329 183.431 50.7382Z" fill="#FFD699"/>
<path d="M179.813 50.0986L177.474 54.052L177.655 54.1554L179.816 50.5016C179.952 50.8827 180.45 51.1831 181.057 51.2138C181.788 51.2495 182.401 50.8825 182.426 50.3918C182.453 49.9017 181.88 49.4727 181.149 49.4376C180.502 49.405 179.948 49.6909 179.813 50.0986Z" fill="#FFD699"/>
<path d="M175.376 52.783L183.851 56.656L183.559 57.267L175.083 53.3942L175.376 52.783Z" fill="#FFD699"/>
<path d="M181.403 54.0678L184.599 55.4723L184.315 56.0879L181.119 54.6839L181.403 54.0678Z" fill="#FFD699"/>
<path d="M187.526 48.3084L191.171 49.5524L191.079 49.8088L187.433 48.564L187.526 48.3084Z" fill="#FFD699"/>
<path d="M127.505 60.286L127.427 76.2868L127.929 76.2878L128.002 61.1112C128.745 61.7441 130.137 61.792 131.429 61.1558C132.984 60.3882 133.805 58.9204 133.266 57.8781C132.724 56.8346 131.027 56.6114 129.473 57.3798C128.094 58.0577 127.292 59.2879 127.505 60.286Z" fill="#FFD699"/>
<path d="M125.988 61.9441L135.033 60.3149L135.154 60.9466L126.109 62.5752L125.988 61.9441Z" fill="#FFD699"/>
<path d="M125.975 64.6475L135.018 63.0195L135.14 63.6514L126.095 65.2786L125.975 64.6475Z" fill="#FFD699"/>
<path d="M84.4577 71.6511L69.3014 58.9417L68.9023 59.3948L83.2806 71.4503C82.0904 71.622 80.9467 72.8446 80.5322 74.5203C80.0329 76.5339 80.7785 78.4374 82.1977 78.7719C83.6161 79.109 85.171 77.7469 85.6701 75.7314C86.1115 73.9443 85.5739 72.2461 84.4577 71.6511Z" fill="#FFD699"/>
<path d="M77.7861 78.0597L83.3824 68.5806L84.0778 68.9691L78.4809 78.4503L77.7861 78.0597Z" fill="#FFD699"/>
<path d="M75.2251 75.9102L80.8214 66.4284L81.5165 66.8202L75.9184 76.3008L75.2251 75.9102Z" fill="#FFD699"/>
<path d="M104.746 68.2973L99.5981 51.855L99.0604 52.0148L103.935 67.5769C102.926 67.138 101.422 67.5409 100.257 68.6394C98.8568 69.9645 98.4776 71.7988 99.4079 72.7391C100.342 73.6786 102.234 73.3665 103.634 72.0413C104.876 70.87 105.314 69.2949 104.746 68.2973Z" fill="#FFD699"/>
<path d="M251.678 18.4417L244.357 11.4729L244.181 11.6486L251.198 18.3306C250.704 18.3701 250.201 18.8455 249.985 19.5257C249.726 20.3416 249.982 21.1446 250.556 21.318C251.134 21.4925 251.81 20.9718 252.067 20.1541C252.296 19.4293 252.121 18.7163 251.678 18.4417Z" fill="#FFD699"/>
<path d="M252.558 12.9275L247.886 8.48157L247.709 8.65663L252.078 12.8139C251.584 12.8531 251.081 13.3286 250.863 14.0075C250.606 14.8246 250.86 15.6271 251.438 15.7999C252.014 15.9755 252.688 15.4543 252.948 14.6372C253.176 13.9118 253.001 13.1987 252.558 12.9275Z" fill="#FFD699"/>
<path d="M255.538 8.52618L250.343 3.58029L250.165 3.75659L255.058 8.41264C254.564 8.45392 254.06 8.9275 253.845 9.60627C253.586 10.4242 253.842 11.2266 254.416 11.4013C254.994 11.5739 255.67 11.0532 255.927 10.2359C256.156 9.51131 255.981 8.80074 255.538 8.52618Z" fill="#FFD699"/>
<path d="M244.833 12.3174L243.858 11.3825L250.243 3.51483L251.142 4.40727L244.833 12.3174Z" fill="#FFD699"/>
<path d="M116.029 61.4138L107.958 40.9211L107.441 41.1166L115.178 60.7577C114.151 60.3948 112.697 60.8921 111.628 62.055C110.342 63.4553 110.098 65.2891 111.085 66.1516C112.071 67.0145 113.912 66.5802 115.198 65.1811C116.339 63.9383 116.657 62.3562 116.029 61.4138Z" fill="#FFD699"/>
<path d="M124.989 47.5266L119.839 34.4532L119.32 34.6472L124.137 46.8707C123.11 46.5072 121.658 47.0051 120.587 48.1666C119.302 49.5662 119.058 51.4015 120.044 52.2646C121.03 53.1288 122.87 52.6923 124.158 51.2923C125.298 50.0507 125.618 48.4678 124.989 47.5266Z" fill="#FFD699"/>
<path d="M108.261 43.2374L107.192 40.4986L119.525 33.4383L120.479 36.0283L108.261 43.2374Z" fill="#FFD699"/>
<path d="M208.218 51.6399L204.785 41.5894L204.531 41.6724L207.823 51.3046C207.336 51.1089 206.624 51.3168 206.083 51.8569C205.432 52.5022 205.273 53.381 205.73 53.8185C206.186 54.2557 207.083 54.0868 207.735 53.4374C208.313 52.8622 208.501 52.1075 208.218 51.6399Z" fill="#FFD699"/>
<path d="M212.846 45.135L210.655 38.7242L210.401 38.8064L212.452 44.8004C211.966 44.6036 211.253 44.8125 210.713 45.3513C210.06 45.9981 209.902 46.8782 210.358 47.3136C210.815 47.7502 211.712 47.5792 212.363 46.9325C212.94 46.36 213.131 45.6026 212.846 45.135Z" fill="#FFD699"/>
<path d="M204.88 42.7139L204.425 41.3716L210.527 38.2275L210.93 39.4955L204.88 42.7139Z" fill="#FFD699"/>
<path d="M106.609 76.2027L112.113 94.2328L112.568 94.099L107.291 76.8163C108.144 77.1932 109.421 76.8636 110.412 75.9375C111.606 74.8256 111.939 73.2744 111.155 72.474C110.371 71.6737 108.768 71.9255 107.574 73.0362C106.516 74.024 106.137 75.3549 106.609 76.2027Z" fill="#FFD699"/>
<path d="M97.7833 86.4339L101.296 97.9345L101.752 97.8007L98.4657 87.0476C99.319 87.4232 100.594 87.0955 101.588 86.1695C102.781 85.0569 103.114 83.5049 102.331 82.7052C101.546 81.9021 99.9436 82.1575 98.75 83.2681C97.6904 84.2551 97.3087 85.5869 97.7833 86.4339Z" fill="#FFD699"/>
<path d="M112.131 92.1252L112.858 94.5365L101.842 99.7677L101.202 97.4939L112.131 92.1252Z" fill="#FFD699"/>
<path d="M110.902 88.6368L111.63 91.0452L100.613 96.2797L99.9736 94.0049L110.902 88.6368Z" fill="#FFD699"/>
<path d="M244.472 26.8186L254.3 33.4532L254.449 33.2453L244.982 26.8541C245.479 26.7288 245.91 26.1607 246.008 25.4313C246.128 24.5552 245.723 23.778 245.107 23.6985C244.491 23.6184 243.891 24.2658 243.772 25.1407C243.665 25.9183 243.971 26.6155 244.472 26.8186Z" fill="#FFD699"/>
<path d="M238.396 36.1348L248.224 42.7692L248.371 42.5607L238.906 36.1695C239.403 36.0448 239.832 35.4759 239.93 34.7467C240.052 33.8691 239.648 33.094 239.029 33.0139C238.41 32.934 237.814 33.5797 237.696 34.4567C237.589 35.2341 237.895 35.9315 238.396 36.1348Z" fill="#FFD699"/>
<path d="M245.938 32.4133L251.828 36.3889L251.978 36.1798L246.448 32.4474C246.945 32.3235 247.376 31.7525 247.474 31.0246C247.594 30.1479 247.19 29.3719 246.571 29.292C245.955 29.2131 245.357 29.8578 245.238 30.7327C245.13 31.5116 245.437 32.2075 245.938 32.4133Z" fill="#FFD699"/>
<path d="M244.482 36.6191L249.247 39.8326L249.396 39.6247L244.991 36.6534C245.489 36.5266 245.917 35.9579 246.016 35.2285C246.138 34.3522 245.734 33.5783 245.115 33.4977C244.499 33.4156 243.899 34.0636 243.782 34.9391C243.674 35.7155 243.981 36.4139 244.482 36.6191Z" fill="#FFD699"/>
<path d="M253.316 32.5281L254.446 33.2963L248.754 43.1583L247.707 42.4162L253.316 32.5281Z" fill="#FFD699"/>
<path d="M251.655 31.4367L252.785 32.2042L247.09 42.0683L246.045 41.3274L251.655 31.4367Z" fill="#FFD699"/>
<path d="M158.632 44.1141L155.624 61.8709L156.159 61.9582L159.018 45.078C159.702 45.8806 161.18 46.1647 162.672 45.7006C164.468 45.1418 165.605 43.7114 165.211 42.5062C164.816 41.3012 163.042 40.7775 161.245 41.3377C159.654 41.834 158.581 43.0124 158.632 44.1141Z" fill="#FFD699"/>
<path d="M164.5 42.6903C164.675 43.1982 163.726 43.963 162.382 44.4027C161.037 44.8402 159.806 44.7838 159.634 44.276C159.46 43.7669 160.41 43.0012 161.753 42.5644C163.096 42.1243 164.326 42.1833 164.5 42.6903Z" fill="#FFD699"/>
<path d="M231.2 46.7987L228.287 36.7672L228.034 36.8384L230.826 46.4521C230.354 46.2374 229.647 46.411 229.088 46.9155C228.419 47.5235 228.224 48.3806 228.651 48.8321C229.078 49.2803 229.969 49.1519 230.64 48.5439C231.234 48.0043 231.453 47.2712 231.2 46.7987Z" fill="#FFD699"/>
<path d="M236.052 40.6065L234.19 34.2079L233.939 34.2771L235.676 40.2599C235.208 40.0477 234.497 40.2207 233.94 40.7264C233.271 41.3338 233.074 42.1903 233.503 42.6399C233.933 43.0887 234.819 42.963 235.492 42.3536C236.084 41.8142 236.307 41.079 236.052 40.6065Z" fill="#FFD699"/>
<path d="M228.33 37.8755L227.942 36.5341L234.087 33.716L234.425 34.9794L228.33 37.8755Z" fill="#FFD699"/>
<path d="M222.983 50.3003L225.784 59.9423L226.073 59.8614L223.413 50.6975C223.952 50.9426 224.765 50.7436 225.405 50.1641C226.174 49.4671 226.398 48.4818 225.908 47.9667C225.417 47.451 224.395 47.5978 223.626 48.2941C222.944 48.9147 222.691 49.7559 222.983 50.3003Z" fill="#FFD699"/>
<path d="M225.596 48.2221C225.805 48.439 225.514 49.0443 224.944 49.5763C224.372 50.1089 223.74 50.3637 223.529 50.148C223.318 49.9331 223.609 49.3278 224.18 48.7958C224.748 48.2632 225.384 48.0084 225.596 48.2221Z" fill="#FFD699"/>
<path d="M229.788 45.5586C229.52 45.4174 229.233 45.2917 228.938 45.1901C228.012 44.8757 226.965 44.8268 225.999 45.1096C225.296 45.2935 224.344 45.8553 223.768 46.5159C223.175 47.1664 222.921 47.8146 222.918 47.8073C222.923 47.8146 223.281 47.2155 223.925 46.6705C224.558 46.1081 225.483 45.6891 226.121 45.5171C227.008 45.257 227.958 45.1798 228.896 45.3433C229.194 45.3953 229.492 45.4746 229.777 45.5842L230.088 45.718L229.788 45.5586Z" fill="#FFD699"/>
<path d="M80.5722 25.8068L91.9685 35.094L92.2594 34.7521L81.4491 25.946C82.3303 25.806 83.1685 24.8851 83.458 23.6357C83.8069 22.1345 83.2333 20.7288 82.176 20.4943C81.1179 20.2615 79.979 21.2885 79.6295 22.7903C79.32 24.12 79.7366 25.3756 80.5722 25.8068Z" fill="#FFD699"/>
<path d="M76.0024 51.3742L83.7461 57.6828L84.0362 57.3409L76.8793 51.5133C77.7625 51.3732 78.5987 50.4522 78.8896 49.2029C79.2371 47.7043 78.6629 46.296 77.6062 46.064C76.5483 45.8286 75.4078 46.8557 75.0593 48.3575C74.7502 49.6892 75.1683 50.9448 76.0024 51.3742Z" fill="#FFD699"/>
<path d="M65.2208 49.6246L81.1842 62.632L81.4763 62.2922L66.0969 49.7605C66.9783 49.6205 67.8163 48.7002 68.1054 47.4535C68.4562 45.9523 67.8805 44.5448 66.8238 44.3119C65.7659 44.0774 64.6268 45.1042 64.2775 46.6061C63.9678 47.9378 64.3847 49.1934 65.2208 49.6246Z" fill="#FFD699"/>
<path d="M76.782 33.5632L92.7441 46.5726L93.0356 46.2308L77.6574 33.7003C78.5401 33.5603 79.3769 32.6394 79.6672 31.3921C80.0165 29.8906 79.4425 28.4819 78.3829 28.2472C77.3271 28.0158 76.1859 29.0422 75.838 30.5434C75.5292 31.8764 75.9464 33.1319 76.782 33.5632Z" fill="#FFD699"/>
<path d="M78.7278 44.1069L88.2975 51.9029L88.5884 51.5631L79.6047 44.243C80.4861 44.103 81.3229 43.1819 81.6138 41.9358C81.9631 40.4346 81.3883 39.0264 80.3304 38.7938C79.2729 38.5591 78.1346 39.5865 77.7838 41.0879C77.475 42.4203 77.8922 43.6759 78.7278 44.1069Z" fill="#FFD699"/>
<path d="M80.21 61.5596L91.7655 45.4205L92.9865 46.2518L81.4291 62.3921L80.21 61.5596Z" fill="#FFD699"/>
<path d="M85.2285 49.5443L89.4627 43.4331L90.6961 44.2473L86.4599 50.3573L85.2285 49.5443Z" fill="#FFD699"/>
<path d="M74.9541 34.725L79.0079 27.6249L79.5304 27.9086L75.4752 35.0087L74.9541 34.725Z" fill="#FFD699"/>
<path d="M80.8823 27.7969L84.9381 20.6968L85.4607 20.9774L81.4034 28.0808L80.8823 27.7969Z" fill="#FFD699"/>
<path d="M82.8096 29.3667L86.8648 22.2666L87.3865 22.549L83.3301 29.6516L82.8096 29.3667Z" fill="#FFD699"/>
<path d="M243.339 14.8542L243.258 14.8874C242.713 15.0266 242.23 15.3121 241.73 15.5633C241.305 15.778 240.806 15.9211 240.239 15.8682L239.888 15.7499C240.339 15.3835 240.816 15.0076 241.352 14.8007C241.897 14.5897 242.538 14.4498 243.339 14.8542ZM243.795 14.8051L243.626 14.8137L243.469 14.7105C243.052 14.4617 242.557 14.2916 242.102 14.2722C241.631 14.253 241.182 14.3744 240.77 14.5336C240.37 14.6907 239.973 14.8992 239.589 15.1034C239.312 15.2559 239.024 15.3565 238.668 15.3354L238.414 15.2495L238.333 15.4764L245.263 17.8224C244.84 18.06 244.596 18.6839 244.696 19.374C244.815 20.2035 245.384 20.8098 245.967 20.7313C246.55 20.6514 246.929 19.9132 246.809 19.0858C246.705 18.3494 246.245 17.7902 245.735 17.7268L241.806 16.3973C242.106 16.1636 242.382 15.9343 242.678 15.7027C243.126 15.3492 243.629 14.9708 244.302 15.061C245.01 15.1585 245.623 15.5548 245.978 15.9396L246.086 16.0096L245.965 15.7287C245.733 15.4871 245.461 15.27 245.125 15.0999C244.65 14.8604 244.18 14.7807 243.795 14.8051Z" fill="#FFD699"/>
<path d="M47.5712 30.1891L41.4157 6.7514L40.8237 6.89983L46.7249 29.3654C45.6486 28.8411 43.9928 29.2028 42.6693 30.344C41.0791 31.716 40.5716 33.6939 41.5381 34.7612C42.5046 35.8287 44.5785 35.5814 46.1681 34.2096C47.5797 32.993 48.137 31.3012 47.5712 30.1891Z" fill="#FFD699"/>
<path d="M59.1948 16.1013L55.2681 1.15131L54.6747 1.29912L58.3488 15.2765C57.2724 14.7534 55.6172 15.117 54.295 16.2563C52.7023 17.6295 52.1952 19.6054 53.1625 20.6754C54.1298 21.7429 56.2023 21.4951 57.7919 20.1252C59.2048 18.9041 59.7614 17.2129 59.1948 16.1013Z" fill="#FFD699"/>
<path d="M41.4462 9.32489L40.6338 6.1934L55.0583 0L55.764 2.95581L41.4462 9.32489Z" fill="#FFD699"/>
<path d="M144.047 33.4441L140.104 34.0512L139.762 31.9404L143.706 31.3365L144.047 33.4441Z" fill="#FFD699"/>
<path d="M134.809 45.1267L132.364 29.999L131.932 30.0645L134.262 44.4816C133.532 44.0369 132.327 44.1872 131.304 44.9137C130.078 45.7842 129.578 47.1595 130.194 47.9855C130.808 48.8094 132.302 48.7698 133.53 47.8986C134.622 47.1234 135.134 45.9548 134.809 45.1267Z" fill="#FFD699"/>
<path d="M153.345 42.4831L150.831 26.9183L150.399 26.984L152.799 41.8404C152.068 41.3966 150.863 41.5463 149.842 42.2727C148.613 43.1433 148.115 44.5198 148.728 45.3439C149.344 46.1684 150.839 46.1288 152.066 45.2556C153.156 44.4837 153.671 43.3136 153.345 42.4831Z" fill="#FFD699"/>
<path d="M145.185 38.8144L143.486 28.307L143.052 28.3745L144.638 38.1718C143.908 37.7259 142.701 37.8745 141.681 38.6008C140.453 39.4746 139.953 40.8472 140.568 41.6732C141.183 42.4971 142.679 42.4575 143.906 41.5863C144.995 40.8125 145.509 39.6424 145.185 38.8144Z" fill="#FFD699"/>
<path d="M151.197 29.0509L132.239 31.9627L131.898 29.8539L150.858 26.9419L151.197 29.0509Z" fill="#FFD699"/>
<path d="M31.3687 58.3894C36.1777 47.7037 46.5547 40.8978 56.1376 35.6336C61.9098 32.4635 67.8676 29.6068 74.0382 27.4486C80.0695 25.339 86.9217 23.5156 93.2786 24.4051C96.3213 24.8341 99.3097 26.3704 100.699 29.3758C101.878 31.923 101.511 35.0351 100.897 37.7071C99.5529 43.5586 96.4984 48.8887 93.7118 54.0881C90.8638 59.4103 88.0114 64.8428 86.7245 70.8396C85.9571 74.411 85.6179 78.6589 86.9847 82.1067C88.9412 87.046 94.4282 86.4669 98.4836 85.1519C104.956 83.0528 110.926 79.0111 116.498 75.0176C121.262 71.6037 125.853 67.9164 130.31 64.0686C138.9 56.6558 147.412 48.8883 157.744 44.3396C164.017 41.5807 170.993 40.1288 177.745 40.8464C180.874 41.1806 183.743 42.1009 186.307 44.0229C188.47 45.6383 190.264 47.7479 192.15 49.6899C195.891 53.5449 200.217 56.0897 205.469 56.8127C210.877 57.5556 216.447 56.303 221.513 54.2429C239.211 47.0402 251.951 28.3526 254.283 8.73673L254.073 8.73425C252.578 21.3318 246.876 33.1414 238.394 42.1701C230.452 50.6248 219.19 57.1013 207.745 56.7761C201.811 56.6054 196.747 54.0226 192.528 49.7652C190.745 47.9657 189.075 46.0445 187.147 44.411C185.071 42.6546 182.756 41.5685 180.149 41.0066C167.741 38.3346 154.991 44.3193 144.924 51.6684C138.368 56.4506 132.451 62.1025 126.176 67.2705C120.763 71.7283 115.153 75.9697 109.225 79.6201C106.257 81.449 103.185 83.129 99.9629 84.3868C97.4936 85.3497 94.7893 86.1331 92.1478 85.8373C84.4949 84.9867 86.0417 73.7308 87.5434 68.4212C89.2758 62.2992 92.5434 56.7734 95.4799 51.2307C98.0015 46.4704 100.684 41.3328 101.467 35.8819C101.803 33.5341 101.757 31.1544 100.762 29C99.7098 26.7259 97.521 25.3527 95.3026 24.6332C92.71 23.7949 89.874 23.8938 87.1944 24.1625C83.9339 24.4866 80.7102 25.1912 77.5479 26.0987C67.939 28.8518 58.5886 33.577 50.0295 38.9618C42.5346 43.6761 35.0207 49.7598 31.1899 58.2755L31.3687 58.3894Z" fill="#FFD699"/>
<path d="M23.4231 50.9971C28.6775 40.4907 39.4804 34.0731 49.4242 29.1662C55.413 26.2131 61.5809 23.5792 67.9426 21.6527C74.1605 19.7664 81.2049 18.1979 87.6553 19.3277C90.7426 19.8688 93.7403 21.5166 95.0557 24.5727C96.1716 27.1634 95.6953 30.2602 94.9826 32.9088C93.417 38.7093 90.1263 43.924 87.116 49.0212C84.0351 54.2344 80.9485 59.5604 79.4369 65.51C78.5368 69.0496 78.0511 73.2843 79.3298 76.783C81.1611 81.7942 86.7727 81.4178 90.9501 80.256C97.6181 78.3982 103.838 74.5789 109.65 70.7944C114.618 67.5597 119.42 64.0434 124.092 60.3636C133.091 53.2722 142.026 45.8257 152.71 41.662C159.196 39.135 166.354 37.9437 173.214 38.9156C176.393 39.3666 179.287 40.3933 181.836 42.41C183.986 44.1077 185.744 46.2826 187.604 48.2948C191.291 52.2875 195.618 54.9933 200.945 55.912C206.432 56.8571 212.152 55.8127 217.384 53.9409C235.666 47.3986 249.272 29.191 252.298 9.66593L252.084 9.65292C250.139 22.1931 243.936 33.7884 234.995 42.4992C226.615 50.6573 214.921 56.7115 203.267 55.9586C197.224 55.5695 192.146 52.7966 187.987 48.3829C186.227 46.5173 184.592 44.5355 182.679 42.8293C180.622 40.9938 178.297 39.8225 175.658 39.1639C163.099 36.0283 149.902 41.5394 139.4 48.5097C132.558 53.0472 126.339 58.479 119.772 63.4113C114.105 67.6664 108.248 71.6978 102.083 75.1253C98.9973 76.8446 95.8107 78.4098 92.4846 79.5454C89.9349 80.4176 87.1528 81.0974 84.4708 80.7077C76.6984 79.5702 78.6456 68.3731 80.3539 63.1188C82.3219 57.0662 85.8353 51.6614 89.0122 46.2283C91.7398 41.5644 94.644 36.5262 95.6222 31.1062C96.0436 28.7726 96.075 26.389 95.1323 24.1987C94.1346 21.8857 91.9486 20.433 89.7113 19.6318C87.0956 18.6946 84.2024 18.6888 81.4624 18.8542C78.1271 19.0592 74.8185 19.6436 71.564 20.4326C61.678 22.8271 51.991 27.2036 43.0884 32.2672C35.2923 36.7009 27.4323 42.5027 23.2441 50.8742L23.4231 50.9971Z" fill="#FFD699"/>
<path d="M15.5674 43.3086C21.2733 32.9998 32.4964 26.9856 42.7953 22.4518C48.9969 19.7214 55.3724 17.3195 61.9211 15.6292C68.3207 13.9781 75.5538 12.6713 82.0918 14.0404C85.2224 14.6948 88.2207 16.4545 89.4614 19.5596C90.5137 22.1904 89.9259 25.2726 89.1104 27.8935C87.3228 33.6338 83.7968 38.7244 80.5582 43.7073C77.246 48.8043 73.9232 54.0148 72.1862 59.9054C71.1505 63.4128 70.5161 67.6274 71.7035 71.1755C73.4045 76.2537 79.1385 76.0873 83.434 75.0795C90.2926 73.4715 96.7585 69.8861 102.809 66.319C107.979 63.2683 112.992 59.9324 117.876 56.4277C127.283 49.6725 136.638 42.5611 147.668 38.7973C154.363 36.5128 161.698 35.5892 168.659 36.8151C171.883 37.3828 174.8 38.5178 177.332 40.6301C179.467 42.4075 181.188 44.647 183.016 46.7285C186.644 50.8594 190.963 53.7245 196.362 54.8432C201.926 55.9927 207.791 55.1597 213.185 53.4847C232.038 47.6257 246.508 29.9259 250.241 10.521L250.022 10.5004C247.626 22.9631 240.92 34.3266 231.515 42.7031C222.707 50.5445 210.585 56.1612 198.728 54.9754C192.583 54.3622 187.499 51.4004 183.403 46.8292C181.673 44.8992 180.069 42.8575 178.178 41.0832C176.141 39.1711 173.81 37.9117 171.141 37.1546C158.444 33.5525 144.81 38.5681 133.87 45.1457C126.748 49.4289 120.23 54.6263 113.37 59.3141C107.454 63.3574 101.351 67.1691 94.9515 70.3683C91.7509 71.9676 88.4499 73.4158 85.0215 74.4274C82.3941 75.2038 79.5353 75.7824 76.8137 75.2888C68.9292 73.8625 71.2847 62.7389 73.1993 57.553C75.4056 51.5728 79.1664 46.2991 82.5838 40.986C85.5187 36.4238 88.6467 31.4967 89.8231 26.1153C90.331 23.7953 90.4407 21.4144 89.552 19.1898C88.612 16.8401 86.4311 15.3065 84.1771 14.4202C81.5418 13.3868 78.5926 13.2724 75.7935 13.3371C72.3881 13.4157 68.9971 13.8777 65.653 14.5449C55.4955 16.5697 45.4765 20.5825 36.2345 25.3157C28.14 29.4575 19.935 34.9662 15.3896 43.1798L15.5674 43.3086Z" fill="#FFD699"/>
<path d="M7.81456 35.3303C13.9722 25.236 25.6125 19.6395 36.2604 15.4906C42.6726 12.9935 49.2492 10.8282 55.9816 9.38146C62.5609 7.97065 69.9763 6.93474 76.5952 8.54641C79.7653 9.31747 82.7634 11.1901 83.926 14.3401C84.9116 17.0092 84.2109 20.0676 83.2927 22.6572C81.2797 28.3324 77.5175 33.2893 74.0517 38.1507C70.5071 43.1249 66.9464 48.2107 64.9798 54.0359C63.8098 57.5018 63.0221 61.6923 64.1156 65.2827C65.6804 70.4259 71.5314 70.4707 75.9442 69.626C82.988 68.2746 89.699 64.9278 95.9834 61.5878C101.357 58.7311 106.574 55.5825 111.669 52.2582C121.483 45.8577 131.254 39.0944 142.621 35.743C149.522 33.7081 157.029 33.0601 164.086 34.5461C167.353 35.2348 170.287 36.4773 172.801 38.6829C174.917 40.5396 176.597 42.8429 178.391 44.9923C181.951 49.2572 186.261 52.2848 191.729 53.6034C197.361 54.9588 203.368 54.3461 208.922 52.8732C228.331 47.7186 243.67 30.5616 248.118 11.2976L247.893 11.2681C245.038 23.6411 237.826 34.7513 227.96 42.7766C218.723 50.2898 206.183 55.4522 194.134 53.8249C187.89 52.9791 182.806 49.8288 178.782 45.1094C177.082 43.1135 175.517 41.0138 173.647 39.1674C171.634 37.1786 169.298 35.8328 166.603 34.9769C153.78 30.902 139.714 35.409 128.347 41.5789C120.945 45.5939 114.128 50.5464 106.982 54.978C100.818 58.7992 94.4683 62.3828 87.8404 65.3436C84.5239 66.8242 81.1108 68.1491 77.5833 69.0325C74.8788 69.7123 71.9454 70.1811 69.188 69.5878C61.1978 67.8671 63.9684 56.8356 66.0916 51.7177C68.5381 45.8206 72.5449 40.6916 76.2062 35.5042C79.3482 31.0535 82.6985 26.2447 84.0781 20.9064C84.6707 18.6077 84.8631 16.2307 84.03 13.9727C83.1495 11.5881 80.9787 9.97147 78.7098 9.0045C76.0576 7.87177 73.0537 7.64881 70.1995 7.6098C66.7251 7.56004 63.2517 7.89489 59.8219 8.43638C49.4018 10.0838 39.0557 13.7231 29.477 18.1079C21.0891 21.9503 12.5443 27.1491 7.63721 35.1924L7.81456 35.3303Z" fill="#FFD699"/>
<path d="M0.176735 27.0601C6.78716 17.1997 18.8384 12.0392 29.8286 8.28773C36.4489 6.02866 43.2241 4.10918 50.1351 2.91596C56.8876 1.74792 64.4812 0.988844 71.1758 2.84845C74.3806 3.7378 77.3746 5.72251 78.4558 8.91407C79.3711 11.6201 78.5558 14.6519 77.5335 17.2059C75.2952 22.804 71.2958 27.6231 67.6015 32.3545C63.8234 37.1924 60.0259 42.1451 57.8276 47.8957C56.5213 51.3187 55.58 55.4805 56.5752 59.1103C58.0008 64.3091 63.9625 64.5725 68.4887 63.8923C75.7148 62.8027 82.6653 59.7103 89.1832 56.6031C94.7536 53.9481 100.177 50.9929 105.48 47.861C115.697 41.8257 125.879 35.4292 137.578 32.5029C144.681 30.7249 152.353 30.3564 159.497 32.107C162.805 32.9164 165.755 34.2676 168.245 36.5663C170.34 38.5023 171.977 40.8687 173.736 43.0832C177.225 47.4795 181.515 50.6672 187.046 52.1888C192.742 53.7571 198.886 53.3664 204.596 52.1005C224.552 47.6715 240.755 31.0909 245.924 11.996L245.699 11.9593C242.378 24.2228 234.661 35.0609 224.337 42.7155C214.673 49.8827 201.718 54.5792 189.49 52.5022C183.153 51.4246 178.075 48.0858 174.132 43.2136C172.463 41.1575 170.936 38.9986 169.092 37.082C167.102 35.0184 164.77 33.5871 162.051 32.6319C149.114 28.0777 134.628 32.0607 122.834 37.8037C115.158 41.5423 108.042 46.2413 100.612 50.4037C94.2019 53.9948 87.6111 57.3424 80.7577 60.0531C77.3279 61.4115 73.805 62.6091 70.1805 63.3605C67.4014 63.9386 64.3953 64.2984 61.6035 63.6018C53.516 61.5829 56.7044 50.656 59.0369 45.6197C61.7273 39.8156 65.9826 34.8359 69.8848 29.788C73.2357 25.4534 76.8115 20.7707 78.3922 15.4846C79.0734 13.208 79.348 10.8381 78.5733 8.55032C77.7543 6.13291 75.5946 4.43804 73.3144 3.38582C70.6477 2.15461 67.5947 1.8177 64.6858 1.67154C61.147 1.49359 57.5949 1.70003 54.08 2.11373C43.4047 3.37281 32.7362 6.623 22.8283 10.6529C14.1504 14.1793 5.26819 19.0594 0 26.9175L0.176735 27.0601Z" fill="#FFD699"/>
<path fill-rule="evenodd" clip-rule="evenodd" d="M231.801 21.4051C229.712 22.2827 227.994 22.4681 226.622 21.9613C225.436 21.504 224.744 20.6759 224.546 19.4647C224.361 18.2781 224.707 17.2276 225.572 16.3129C226.561 15.2747 227.933 14.7803 229.688 14.8421C230.046 15.2871 230.083 16.1275 229.786 17.3759C229.7 17.1658 229.267 17.2276 228.489 17.5613C227.673 17.9197 227.203 18.4635 227.092 19.1927C226.894 20.3546 227.463 20.9725 228.773 21.0591C229.774 21.1209 230.849 20.9107 231.974 20.404C232.011 20.4287 231.962 20.7624 231.801 21.4051ZM213.941 26.1512C213.249 25.8052 212.372 25.7434 211.333 26.0029C209.22 26.4726 207.28 28.2029 205.5 31.1816C204.474 32.9367 203.905 34.4075 203.819 35.6187C203.732 36.6817 204.017 37.4109 204.635 37.8064C205.24 38.1772 205.982 38.1772 206.847 37.8064C207.774 37.3862 208.602 36.657 209.319 35.6187C210.641 33.703 211.333 31.9232 211.395 30.2794C211.445 28.858 211.062 28.0299 210.258 27.7827L213.249 26.5344C213.904 27.6591 215.153 28.067 216.969 27.7827C217.019 27.9434 216.945 28.1535 216.772 28.4007C216.426 28.858 215.734 29.2535 214.708 29.5872C214.72 30.5513 214.238 31.7749 213.249 33.2704C212.248 34.7783 211.049 36.0884 209.665 37.2131C208.145 38.4368 206.748 39.1165 205.463 39.2401C203.992 39.4132 202.855 38.7705 202.076 37.3367C201.532 36.2367 201.557 34.5435 202.113 32.2816C202.768 29.6985 203.955 27.585 205.685 25.9658C207.712 24.0748 209.801 23.1231 211.939 23.1231C212.99 23.1231 213.731 23.3703 214.176 23.8771C214.671 24.458 214.584 25.2119 213.941 26.1512ZM199.097 21.2815C199.011 21.2815 198.554 21.331 197.713 21.4422C196.675 21.5782 195.736 21.6894 194.907 21.7512C192.003 21.9613 189.568 21.7141 187.603 21.0343C187.937 20.713 188.134 20.2433 188.196 19.6253C187.924 19.786 189.346 19.6995 192.46 19.3411C195.76 18.9456 198.282 18.4635 200.037 17.9073C200.556 17.7343 200.556 18.2534 200.024 19.4399C199.864 19.8354 199.654 20.2557 199.406 20.713C199.184 21.1332 199.085 21.3186 199.097 21.2815ZM191.175 23.086C192.324 23.2344 192.658 24.5074 192.188 26.9052C191.793 28.9074 191.187 30.6007 190.347 31.9974C194.846 26.0153 197.936 23.086 199.604 23.222C201.038 23.1108 201.668 23.7658 201.52 25.1872C201.396 26.2625 200.803 27.9187 199.728 30.1187L196.972 35.4951C196.119 37.2873 195.822 38.3626 196.069 38.7457C196.972 39.03 198.133 38.6345 199.555 37.5221L199.431 38.2143C199.345 38.2514 199.036 38.4862 198.529 38.8941C197.96 39.3143 197.466 39.648 197.046 39.8952C195.637 40.7109 194.401 40.8098 193.338 40.2165C192.732 39.9199 192.856 38.8199 193.721 36.9042C193.882 36.5457 194.302 35.6805 194.982 34.3086C195.538 33.1839 195.933 32.3064 196.181 31.6884C196.972 29.6614 197.392 28.5737 197.429 28.4378C197.701 27.5602 197.639 27.1277 197.219 27.1277C196.415 27.0164 194.809 28.6973 192.398 32.1457C190.186 35.3221 188.691 37.8188 187.924 39.648C186.824 39.6233 185.897 39.475 185.119 39.1783C185.601 37.8311 186.812 35.1985 188.728 31.2805C189.988 28.067 190.186 26.4602 189.309 26.4355C188.073 26.3119 184.921 30.712 179.841 39.648C178.605 39.4873 177.616 39.2525 176.862 38.9559C180.138 31.9479 182.053 27.7209 182.61 26.2748C182.993 25.2366 182.721 24.6928 181.794 24.6557C181.052 24.6063 180.162 24.8411 179.112 25.3355L179.05 24.8782C179.717 24.4085 180.434 24.0377 181.225 23.7535C182.832 23.1231 183.994 23.1602 184.723 23.8771C185.452 25.2737 184.6 28.0423 182.177 32.1828C183.153 30.6378 184.266 29.1052 185.514 27.5602C187.974 24.495 189.865 23.0119 191.175 23.086ZM154.615 20.9355C157.68 19.6006 160.214 17.3388 162.241 14.1624C163.044 12.8646 163.514 11.7769 163.65 10.8747C163.798 9.92299 163.551 9.41624 162.896 9.37917C161.685 9.29265 159.967 11.1342 157.73 14.9039C155.74 18.1916 154.701 20.2062 154.615 20.9355ZM145.642 20.2433C147.063 21.3062 148.732 21.7759 150.635 21.6523C152.341 18.0927 154.751 14.4961 157.866 10.8747C159.102 9.44096 160.597 8.58815 162.34 8.31623C164.095 8.0196 165.294 8.45219 165.924 9.60164C166.962 11.4062 165.85 13.9028 162.575 17.0916C159.509 20.0703 156.667 21.8377 154.071 22.3692C149.683 31.2681 148.299 36.7311 149.894 38.7705C150.573 39.648 151.513 39.5244 152.712 38.3997C153.824 37.3367 154.899 35.6558 155.937 33.3693C156.654 31.7625 156.926 29.9086 156.741 27.8074C155.9 28.2895 155.221 28.24 154.714 27.6591C154.182 27.0906 154.269 26.5097 154.998 25.904C156.123 24.94 157.149 24.4827 158.051 24.5321C158.941 24.5445 159.546 25.0759 159.88 26.0894C160.684 26.1265 161.388 25.8917 161.981 25.3726L162.29 25.8422C161.611 26.5097 160.881 26.9546 160.09 27.1895C160.313 29.6861 159.621 32.0839 158.001 34.3951C156.271 36.8794 154.615 38.5356 153.008 39.3637C151.55 40.1424 150.326 40.5255 149.35 40.5379C152.304 47.9166 159.658 44.0604 163.724 40.4267C166.085 38.3008 167.865 36.1749 169.051 34.0614L169.743 33.839C169.014 36.9412 169.076 38.7334 169.929 39.2154C170.967 39.821 172.339 39.4008 174.044 37.9671C174.897 37.2379 175.651 36.4468 176.306 35.594L175.466 34.9637C174.143 36.5086 173.117 37.2873 172.401 37.2997C171.77 37.3491 171.449 36.83 171.449 35.7423C171.436 33.2086 172.438 30.6131 174.44 27.9681C175.849 27.6097 176.454 27.1895 176.281 26.6827C174.687 26.8928 173.686 26.6827 173.29 26.0647C172.153 28.9322 171.115 30.7861 170.213 31.6142C169.632 32.158 168.94 32.5041 168.149 32.6524C167.382 32.8007 166.74 32.7142 166.221 32.4052C164.911 31.6142 165.059 30.0322 166.678 27.6838C168.075 25.6198 169.793 24.4827 171.807 24.2726C172.808 24.1737 173.674 24.2726 174.403 24.5939C174.662 22.777 173.822 21.8501 171.906 21.813C170.077 21.7883 168.211 22.5051 166.32 23.9636C165.071 24.9276 164.12 26.1018 163.477 27.4984C162.884 28.7838 162.624 30.0322 162.723 31.2434C162.809 32.4794 163.217 33.394 163.946 33.9996C164.725 34.6547 165.751 34.8401 167.024 34.5311C164.824 38.3008 161.351 40.7233 156.58 41.8109C154.603 42.2682 152.909 42.3177 151.5 41.9593C150.425 41.6873 149.721 41.2053 149.35 40.5379C147.582 40.5379 146.618 39.2648 146.482 36.7064C146.297 33.2704 147.483 28.685 150.042 22.9377C147.953 23.2838 146.285 23.2096 145.049 22.6905C144.838 22.604 144.838 22.1467 145.049 21.3062C145.271 20.4782 145.469 20.1197 145.642 20.2433ZM141.081 28.0546C143.17 26.2254 143.949 25.0759 143.38 24.5939C142.997 24.2602 142.342 24.3838 141.44 24.9647C140.587 25.5333 139.672 26.3737 138.733 27.4984C136.434 30.2299 135.272 32.6401 135.223 34.7412C135.186 36.6199 135.865 37.7446 137.287 38.1154C138.782 38.5356 140.735 37.9424 143.145 36.3356C143.627 35.9154 143.701 36.3109 143.368 37.4974C141.897 38.4738 140.352 39.1413 138.733 39.4873C135.507 40.2042 133.529 39.0177 132.812 35.9277C132.417 34.1603 132.639 32.294 133.468 30.3412C134.209 28.5861 135.322 27.0041 136.805 25.5951C138.251 24.2108 139.722 23.3209 141.217 22.9006C142.787 22.4681 144.035 22.6905 144.937 23.5557C145.197 23.7905 145.345 24.2479 145.382 24.94C145.444 25.6692 145.345 26.3366 145.086 26.967C144.455 28.6479 143.12 29.0187 141.081 28.0546ZM229.255 37.6828C228.835 38.1401 228.353 38.5233 227.784 38.8323C226.647 39.4626 225.708 39.4255 224.979 38.7087C224.138 37.1761 224.867 34.4075 227.166 30.4277C222.952 36.5334 219.998 39.5244 218.329 39.4008C216.623 39.6233 215.919 38.8941 216.228 37.2131C216.302 36.7929 216.957 34.9513 218.205 31.6884C220.109 26.5962 221.011 24.013 220.912 23.9389C220.01 23.6422 219.12 23.9512 218.255 24.8782L217.921 24.495L218.626 23.84C219.071 23.4074 219.503 23.049 219.911 22.777C221.209 21.8995 222.383 21.7636 223.458 22.3445C224.089 22.6535 224.101 23.7535 223.483 25.6198C223.273 26.2625 222.952 27.1277 222.507 28.2153C221.901 29.7355 221.543 30.6131 221.468 30.8356C220.752 32.7389 220.319 33.9378 220.183 34.4693C219.862 35.594 219.911 36.1502 220.319 36.1502C221.135 36.3109 222.89 34.4322 225.584 30.4895C226.066 29.785 227.092 28.24 228.674 25.867C229.762 24.2231 230.491 23.1726 230.862 22.7153C231.517 23.6175 232.234 24.2108 233 24.495C229.576 30.9344 227.586 34.8648 227.055 36.3109C226.672 37.3491 226.721 37.9176 227.191 38.0289C227.512 38.0907 228.155 37.8929 229.131 37.4356L229.255 37.6828ZM111.603 29.649C111.739 29.3771 112.061 29.167 112.592 28.994C113.099 28.8086 113.593 28.7344 114.088 28.7715C115.311 28.858 116.139 29.2535 116.572 29.9704C118.166 29.6119 119.056 29.2782 119.217 28.9692C119.452 29.0928 119.464 29.2906 119.242 29.5625C119.056 29.785 118.76 29.9951 118.327 30.1805C118.03 30.3041 117.746 30.4153 117.499 30.4895L116.831 30.749C117.338 32.603 116.621 34.5558 114.669 36.6199C112.555 38.8446 110.071 39.7716 107.24 39.4008C105.535 39.1289 104.818 38.2514 105.065 36.7806C105.09 36.5457 105.708 34.8524 106.931 31.6884C107.191 30.9592 107.809 29.476 108.773 27.2512C109.317 26.0029 109.527 25.3108 109.391 25.1872C108.489 24.8906 107.611 25.1995 106.734 26.1265L106.4 25.7434C106.338 25.731 107.006 25.1995 108.377 24.1861C109.7 23.222 110.886 23.0242 111.937 23.5928C112.567 23.9018 112.617 24.7917 112.073 26.2501C111.912 26.7074 111.616 27.4366 111.171 28.4378C110.701 29.5131 110.367 30.3164 110.182 30.8356C110.009 31.2805 109.725 31.9479 109.329 32.8749C108.909 33.8019 108.625 34.4817 108.476 34.9019C107.908 36.385 107.809 37.3244 108.155 37.7446C109.255 38.4491 110.466 37.9794 111.801 36.3356C113.049 34.7906 113.704 33.2086 113.779 31.5524C112.629 31.6637 111.888 31.4659 111.566 30.9592C111.307 30.5884 111.319 30.1558 111.603 29.649ZM90.6784 26.1265C91.0615 25.6445 91.5188 25.2119 92.0874 24.8411C93.1627 24.1366 94.1144 24.0748 94.9301 24.6804C95.993 26.1018 95.7706 28.7468 94.275 32.6153C95.3256 32.6771 96.6234 31.9603 98.1683 30.4648C98.2549 30.3782 98.8728 29.2288 100.035 26.9917C101.122 24.8906 101.876 23.7164 102.321 23.4692C102.754 23.5063 103.149 23.6175 103.508 23.8153C104.2 24.1861 104.361 24.7175 103.99 25.3973C103.186 26.213 102.198 28.2153 101.011 31.4041C99.6762 34.9637 99.5526 36.9289 100.616 37.2997C101.567 37.4974 102.432 37.1019 103.211 36.1255L103.31 36.4592C102.976 37.0895 102.519 37.6704 101.938 38.2143C100.727 39.2772 99.4785 39.5615 98.1683 39.0918C97.0065 38.7705 96.4998 37.8188 96.6605 36.212C96.7099 35.6929 96.8335 35.0502 97.0189 34.2715C97.2661 33.3569 97.3897 32.8378 97.402 32.7142L93.6694 34.6547C92.4582 37.5469 91.4941 39.4132 90.7649 40.2413C89.9862 39.9076 89.1211 39.648 88.1941 39.4626C91.0615 32.7389 92.6806 28.6479 93.0762 27.2142C93.3481 26.176 93.2492 25.6198 92.7672 25.558C92.4211 25.5333 91.7784 25.8052 90.8391 26.3366L90.6784 26.1265ZM80.012 32.5906C81.248 32.6524 82.9659 31.4412 85.203 28.9692C86.1671 27.9063 86.7727 26.9917 86.9828 26.2501C87.2548 25.3973 86.9828 24.8782 86.1547 24.7175C85.0424 24.4827 83.621 25.7681 81.8659 28.5614C81.2232 29.5625 80.7165 30.5018 80.3333 31.4041C79.9255 32.2816 79.8266 32.6771 80.012 32.5906ZM79.7772 33.6783C79.2333 35.3468 79.4558 36.7558 80.4569 37.9053C81.6187 39.1907 83.312 38.6345 85.5738 36.212C85.7469 36.0266 85.8828 35.5322 85.9941 34.7412L86.1547 33.6536C87.4031 33.53 88.0829 33.839 88.2188 34.5929C88.0829 35.112 87.5885 35.8536 86.748 36.8053C85.3637 38.3873 83.6952 39.3514 81.73 39.6851C79.1839 40.0929 77.503 39.203 76.6749 36.9907C76.0075 35.2232 75.9827 33.4064 76.6131 31.5277C77.7502 28.1164 79.9007 25.6445 83.0648 24.1243C84.3749 23.4939 85.5368 23.2591 86.5626 23.4074C87.6255 23.5557 88.293 24.1119 88.5525 25.0883C89.1829 27.449 88.0334 29.6367 85.0918 31.6884C84.0165 32.43 82.9165 33.0109 81.7918 33.4064C80.7289 33.8019 80.0614 33.8884 79.7772 33.6783ZM55.2308 55.8021C60.5702 56.2594 64.4882 53.7009 67.0096 48.1144C65.1804 47.2368 63.1658 46.8908 60.9781 47.0885C59.1118 47.2492 57.6163 47.7065 56.4792 48.4604C54.5634 49.7335 53.4881 51.2537 53.2657 53.0212C53.0308 54.7515 53.6859 55.6785 55.2308 55.8021ZM64.5995 38.4368C64.6366 38.3626 64.5748 38.2143 64.3894 37.9671L64.1051 37.621C66.6883 36.9783 69.0984 34.7288 71.3108 30.8726C72.2501 29.2412 72.7939 27.8445 72.9423 26.6827C73.0659 25.4097 72.6827 24.6928 71.7681 24.5321C70.7793 24.322 69.5804 24.94 68.1838 26.3737C66.9725 27.622 66.3669 28.2895 66.3669 28.376C66.1444 27.2513 66.3793 26.2625 67.0591 25.4344C67.6276 24.6804 68.4928 24.1366 69.6299 23.7782C70.6681 23.4445 71.7063 23.3456 72.7321 23.4692C73.8198 23.6175 74.5985 23.9759 75.0681 24.5568C76.3041 26.04 76.2917 27.8445 75.0558 29.9704C74.0793 31.6142 72.4355 33.3322 70.149 35.1244C72.9423 38.1154 73.3378 41.9222 71.3108 46.52C72.3614 46.7672 74.4131 47.2739 77.4412 48.0155C79.4434 48.5222 81.0008 48.8683 82.1008 49.0537C84.9806 49.5481 88.1447 49.5357 91.5806 48.9919C91.7784 48.9425 91.7908 49.0166 91.6177 49.2144C91.4447 49.3751 91.1357 49.5975 90.6907 49.8694C89.4671 50.5492 87.984 51.1054 86.2413 51.5256C80.8154 52.811 75.2906 52.1189 69.6422 49.4616C67.9613 51.8717 65.8354 53.7504 63.2646 55.0852C60.459 56.5437 57.505 57.1369 54.3904 56.865C51.9432 56.6302 50.5589 55.7032 50.2252 54.0841C49.9656 52.8976 50.2499 51.5256 51.1027 49.993C52.0173 48.3616 53.4758 47.1009 55.4904 46.211C58.4691 44.8761 62.1893 44.6537 66.6388 45.5188L67.9119 45.766C69.3703 41.3784 69.6546 38.1648 68.7894 36.1255C67.6276 36.9536 66.577 37.621 65.6624 38.1154C64.7849 38.5727 64.4388 38.6839 64.5995 38.4368ZM37.0621 38.3997C36.2711 39.03 35.3441 39.5738 34.3059 40.0559C32.2542 41.0323 30.6227 41.1806 29.4115 40.4885C27.9407 39.512 27.6193 38.103 28.4474 36.2491C29.2014 34.5187 30.3508 33.394 31.8834 32.8749C33.2554 32.3682 34.8868 32.6895 36.7779 33.839C36.8273 33.839 36.852 33.8637 36.8644 33.9008L37.0003 33.9626C37.1857 34.0491 37.5812 34.3086 38.1992 34.7412C41.0172 28.8951 43.0813 24.7175 44.3914 22.2209C41.561 21.2815 40.1026 19.8602 40.0037 17.9691C39.9172 16.4242 40.6712 15.1264 42.2656 14.0635C43.7364 13.0871 45.7881 12.4073 48.4083 12.0365C49.3971 11.9129 50.2005 11.8264 50.8184 11.7769C51.7578 10.5781 52.6724 9.65108 53.5252 9.00838C54.3657 8.27915 55.3421 7.94544 56.4545 8.00724C57.6781 8.06904 58.2713 8.71174 58.2095 9.93535C58.2466 10.6893 57.95 11.5421 57.3444 12.5062C60.4343 13.4826 62.5849 15.4972 63.8085 18.5624C64.9455 18.068 66.0456 17.3388 67.1332 16.4118C67.5287 16.1152 67.64 16.3377 67.4916 17.0669C65.9096 18.5377 64.7725 19.4399 64.0804 19.7489C64.7478 21.9366 64.7231 24.4827 64.0309 27.3996C63.3264 30.3412 62.0781 32.9985 60.2983 35.3716C58.3578 37.9547 56.096 39.7469 53.5129 40.7727C50.5713 41.9345 47.4813 41.9593 44.2431 40.8345C41.4251 39.8581 39.3857 38.7581 38.1251 37.5592C37.7419 37.8929 37.3958 38.1648 37.0621 38.3997ZM60.7433 21.1209C55.8859 22.8759 51.3499 23.4445 47.16 22.8388C43.9588 29.2164 41.4127 33.6041 39.5217 35.9895C41.3262 38.239 43.5262 39.3514 46.1218 39.3019C48.4701 39.2896 50.8184 38.3626 53.1791 36.5581C55.4657 34.7906 57.3073 32.5288 58.7039 29.7726C60.1871 26.8805 60.8669 24.0007 60.7433 21.1209ZM60.9039 19.8478C60.9657 16.7455 59.5567 14.5949 56.6893 13.4084C55.0207 15.5343 53.1915 17.141 51.2016 18.2534C51.1274 18.2905 51.0656 18.2658 51.0038 18.1916L50.9544 18.0309C52.4994 16.8444 53.9825 15.1635 55.3915 13.0005C54.5016 12.7781 53.5129 12.6421 52.4376 12.5927C51.6342 13.9522 50.1757 16.795 48.0252 21.1209C52.5735 21.8995 56.8623 21.4669 60.9039 19.8478ZM42.7476 16.3377C42.2903 18.1298 43.1554 19.4894 45.3431 20.404C47.1105 17.1534 48.7173 14.5702 50.1387 12.6545C48.3836 12.8646 46.8263 13.2972 45.4914 13.9399C44.0948 14.6197 43.1802 15.423 42.7476 16.3377ZM37.0992 36.7064C36.1352 35.2974 34.9981 34.5929 33.7003 34.6176C32.3778 34.6423 31.5497 35.3963 31.216 36.9042C30.8576 38.4615 31.4756 39.1536 33.0576 38.9929C34.5902 38.8446 35.9498 38.0907 37.0992 36.7064ZM55.9106 12.123C56.8129 10.3803 56.5781 9.4286 55.2061 9.28029C54.687 9.26793 53.9207 10.0837 52.9196 11.7522C53.9331 11.7769 54.9342 11.9005 55.9106 12.123ZM219.825 44.6907C220.616 44.1469 221.666 44.2952 222.989 45.1233C224.299 46.0009 224.472 46.9031 223.545 47.8425C220.888 50.4874 218.589 54.0594 216.636 58.5583C214.757 62.946 214.114 65.9988 214.72 67.7045L213.595 68.1494C212.841 67.7045 212.903 65.2572 213.793 60.7707C214.856 55.4189 216.858 50.0548 219.825 44.6907ZM210.048 54.3436C210.172 53.9605 210.369 53.6021 210.629 53.2436C211.173 52.5144 211.853 52.156 212.668 52.156C213.311 52.156 213.719 52.4279 213.892 52.9594C214.028 53.4414 213.978 53.9358 213.744 54.4302C213.2 55.5425 212.421 56.1234 211.432 56.1852C210.407 56.2718 209.949 55.6538 210.048 54.3436ZM208.478 57.31C209.133 57.347 209.739 57.4212 210.295 57.5201C211.395 57.7549 211.692 58.0639 211.198 58.4594C210.246 59.1886 209.195 61.3639 208.046 64.9606C206.773 69.0269 206.872 71.6595 208.33 72.8708L207.539 73.5259C206.377 73.0191 205.66 71.8079 205.376 69.8921C204.944 66.8516 205.982 62.6617 208.478 57.31ZM199.246 60.5235C200.148 59.5471 200.494 58.8549 200.296 58.4594C200.136 58.1134 199.617 58.0021 198.727 58.1504C196.527 58.5707 194.821 59.51 193.622 60.9684C193.251 61.1291 193.016 60.9931 192.955 60.5606C194.277 58.8055 196.131 57.483 198.516 56.5931C201.236 55.5425 202.793 56.1111 203.213 58.274C203.436 59.5718 202.373 61.0549 200.049 62.7482C196.477 65.4921 194.66 67.5932 194.586 69.0517C194.537 69.8427 194.734 70.4236 195.179 70.8067C195.6 71.1404 196.181 71.227 196.91 71.0786C198.64 70.7079 200.247 69.3483 201.755 66.9876C202.175 66.8269 202.373 66.9011 202.348 67.2101C202.336 67.5809 202.064 68.1741 201.532 68.9899C200.939 69.9663 200.234 70.8067 199.431 71.4865C197.095 73.5135 194.747 73.8101 192.374 72.4011C191.78 72.0427 191.459 71.3135 191.422 70.2135C191.385 69.1011 191.657 68.0505 192.213 67.0494C192.88 65.8629 193.919 64.7381 195.303 63.6752C197.416 62.0808 198.727 61.0302 199.246 60.5235ZM189.148 59.8437C188.456 59.4853 187.578 59.4358 186.528 59.683C184.426 60.1651 182.486 61.883 180.706 64.8617C179.68 66.6168 179.112 68.1 179.013 69.2989C178.939 70.3618 179.211 71.091 179.841 71.4865C180.447 71.8697 181.188 71.8697 182.053 71.4865C182.98 71.0786 183.796 70.3494 184.513 69.2989C185.848 67.3831 186.54 65.6033 186.602 63.9595C186.651 62.5505 186.268 61.71 185.465 61.4628L188.456 60.2145C189.111 61.3392 190.347 61.7595 192.176 61.4628C192.213 61.6235 192.151 61.8336 191.978 62.0808C191.632 62.5505 190.94 62.946 189.914 63.2797C189.927 64.2314 189.445 65.455 188.456 66.9629C187.455 68.4584 186.256 69.7685 184.871 70.8933C183.351 72.1292 181.955 72.7966 180.669 72.9326C179.186 73.0933 178.061 72.4629 177.283 71.0168C176.739 69.9168 176.751 68.2359 177.32 65.9617C177.975 63.3786 179.161 61.2774 180.892 59.6459C182.919 57.7549 185.007 56.8032 187.146 56.8032C188.184 56.8032 188.938 57.0628 189.383 57.5572C189.877 58.1381 189.791 58.9044 189.148 59.8437ZM167.63 57.1246C167.605 57.4583 166.962 59.9673 165.702 64.6516C164.738 68.273 164.626 70.5101 165.38 71.3629C166.134 72.0303 167.815 70.0775 170.423 65.4921C173.76 59.6212 175.466 56.6425 175.528 56.556C176.689 57.347 177.666 57.8909 178.432 58.1875C178.185 58.0392 177.332 59.6459 175.886 63.0201C174.403 66.4808 173.649 68.8045 173.649 69.991C173.636 71.0292 173.785 71.5977 174.069 71.6719C174.267 71.7461 174.811 71.5483 175.725 71.1157L175.837 71.3629C175.429 71.8202 174.934 72.2034 174.378 72.5247C173.253 73.1427 172.314 73.1056 171.572 72.4011C171.041 71.4124 170.942 69.9786 171.288 68.0876C171.572 66.4808 172.005 65.1584 172.598 64.1201C171.783 65.6157 170.856 67.1112 169.842 68.582C167.766 71.5607 166.221 73.0068 165.17 72.9326C163.984 72.9326 163.267 72.1292 163.007 70.5225C162.772 69.0022 162.97 67.0123 163.613 64.5527C163.675 64.6145 163.39 65.3067 162.748 66.6168C161.994 68.1741 161.153 69.7067 160.226 71.2146C157.458 75.7506 154.85 78.4821 152.403 79.4214C148.163 80.9417 145.271 80.8057 143.701 79.0135C143.195 78.4326 142.898 77.7652 142.811 76.9866C142.737 76.2821 142.799 75.936 142.997 75.9607C144.851 77.4933 147.434 77.6293 150.734 76.3315C154.207 74.9596 156.939 72.5124 158.916 68.9899C161.178 65.01 162.723 61.3887 163.551 58.1133C163.823 57.656 165.182 57.3223 167.63 57.1246ZM155.381 59.2381C155.357 59.3122 155.01 59.337 154.318 59.337C153.453 59.3122 152.65 59.4482 151.896 59.7448C149.325 60.7212 147.212 63.4527 145.555 67.9269C144.715 70.3 144.838 71.4247 145.963 71.3011C146.791 71.2146 147.755 70.6461 148.855 69.5831C150.351 68.1494 151.896 65.0595 153.503 60.301L155.406 60.8943C154.034 64.837 153.255 67.173 153.045 67.9269C152.773 68.9651 152.848 69.8921 153.28 70.7079C153.799 71.7708 154.85 71.4742 156.419 69.8303L156.518 69.9292C155.567 71.6966 154.417 72.6607 153.082 72.7966C151.439 72.9944 150.672 72.2281 150.796 70.5225C150.858 69.6696 151.08 68.8045 151.463 67.9269C150.709 69.0269 149.832 70.0652 148.843 71.0168C146.903 72.9326 145.358 73.5382 144.233 72.8337C142.428 71.6719 141.786 69.818 142.329 67.2719C142.787 65.0595 143.986 62.8595 145.914 60.6471C147.805 58.4594 149.659 57.1369 151.439 56.6796C153.453 56.1852 154.763 57.0381 155.381 59.2381ZM133.369 68.3966C132.553 69.7314 132.232 70.7449 132.405 71.4247C132.578 72.1787 133.381 71.8079 134.827 70.3C136.187 68.8663 137.274 66.8764 138.078 64.3303C135.717 65.7763 134.147 67.1235 133.369 68.3966ZM131.898 56.865L134.605 57.3718L134.357 59.2134C134.914 58.6448 135.569 58.1133 136.347 57.619C137.892 56.6178 139.24 56.2718 140.414 56.556C141.773 57.2234 142.206 58.8426 141.711 61.401C142.391 61.1044 143.009 60.8943 143.565 60.7707L143.269 61.6482C142.774 61.8583 142.181 62.1426 141.477 62.4887C141.217 63.4898 140.747 64.7258 140.092 66.1842C138.807 68.8415 137.274 70.8191 135.47 72.0798C134.024 73.1303 132.763 73.5382 131.675 73.3281C130.563 73.1303 130.279 72.2034 130.81 70.5843C131.305 69.1505 132.133 67.8033 133.307 66.555C134.382 65.4056 136.113 64.1943 138.498 62.8965C138.757 61.71 138.807 60.919 138.671 60.5235C138.362 59.5718 137.46 59.4853 135.989 60.2763C134.382 61.1044 133.047 62.5628 131.972 64.6516C126.583 75.0461 123.53 83.4383 122.814 89.8283C122.739 90.4339 121.59 90.2732 119.378 89.3586L131.898 56.865ZM117.289 66.2707C118.525 66.3325 120.255 65.1336 122.48 62.6493C123.444 61.5864 124.049 60.6842 124.272 59.9302C124.532 59.0774 124.26 58.5707 123.432 58.3976C122.319 58.1751 120.898 59.4482 119.143 62.2415C118.5 63.2426 117.993 64.1943 117.61 65.0842C117.202 65.9617 117.103 66.3573 117.289 66.2707ZM117.054 67.3707C116.51 69.0269 116.733 70.4359 117.734 71.5854C118.896 72.8708 120.589 72.3146 122.851 69.8921C123.024 69.7067 123.16 69.2247 123.271 68.4337L123.444 67.3337C124.68 67.2101 125.372 67.5191 125.496 68.273C125.36 68.7921 124.865 69.5337 124.025 70.4854C122.653 72.0798 120.972 73.0315 119.007 73.3652C116.461 73.7854 114.78 72.8832 113.952 70.6831C113.284 68.9033 113.259 67.0865 113.89 65.2078C115.027 61.7965 117.178 59.3246 120.342 57.8044C121.652 57.1864 122.814 56.9392 123.839 57.0875C124.902 57.2358 125.57 57.792 125.829 58.7808C126.46 61.1291 125.31 63.3291 122.369 65.3685C121.293 66.1224 120.193 66.691 119.069 67.0865C118.006 67.482 117.338 67.5809 117.054 67.3707ZM107.055 52.5639C107.018 52.5762 105.3 56.3212 101.926 63.7741C98.5268 71.3506 96.7099 75.318 96.4627 75.6394C95.5728 75.5652 95.0166 74.5641 94.8065 72.6483C95.6717 70.2753 97.3155 66.6168 99.738 61.6853C102.123 56.8527 103.458 53.9852 103.767 53.0953C103.817 52.8852 104.917 52.6998 107.055 52.5639ZM110.973 51.2414C111.059 51.229 111.579 51.2414 112.53 51.2784C113.507 51.3402 114.013 51.402 114.038 51.4638C114.211 51.4638 111.9 57.6066 107.129 69.8921C106.388 71.5854 105.782 73.3652 105.325 75.2439C104.385 78.9888 104.62 81.3125 106.017 82.2023C107.883 83.3518 109.811 83.4507 111.813 82.5237C113.902 81.5349 115.126 79.7922 115.46 77.2708C115.633 76.0843 115.2 74.9349 114.174 73.8349L114.471 73.1427C115.175 73.6618 115.769 74.391 116.263 75.3304C117.264 77.1843 117.264 79.1371 116.263 81.1765C115.583 82.4866 114.545 83.4878 113.173 84.1799C111.949 84.7732 110.577 85.0822 109.057 85.0822C105.757 85.0574 103.681 83.9945 102.853 81.8934C102.346 80.3484 102.272 78.6057 102.605 76.6405C102.877 75.0832 103.631 72.4011 104.855 68.582C105.844 65.6651 107.092 62.328 108.575 58.5583C109.564 56.0616 110.355 53.6268 110.973 51.2414ZM104.929 43.8379C103.001 43.6525 101.518 43.7638 100.492 44.184C99.4167 44.6413 98.9346 45.4076 99.0459 46.4705C99.1942 47.6694 100.9 48.1391 104.138 47.8425C105.782 47.6941 107.401 47.4222 108.983 47.0267C119.328 44.9256 125.001 44.9009 125.99 46.9649C126.818 48.3986 126.41 49.82 124.791 51.2166C123.988 51.9088 123.085 52.4526 122.097 52.8728C122.196 52.5762 122.146 52.2549 121.948 51.9088C121.59 51.1796 120.7 50.6605 119.303 50.3762C116.473 49.6593 112.345 49.7953 106.919 50.7841C102.655 51.365 100.269 51.6492 99.7751 51.6492C96.9695 51.5751 95.647 50.4009 95.8076 48.1515C96.0178 45.593 97.3402 43.9862 99.7875 43.3435C101.839 42.7997 103.557 42.9728 104.929 43.8379ZM212.359 72.0798C212.458 71.709 212.631 71.3382 212.878 70.955C213.373 70.2135 214.016 69.818 214.819 69.7685C215.486 69.7067 215.931 69.9416 216.166 70.4607C216.352 70.918 216.339 71.4 216.129 71.8944C215.659 72.9944 214.93 73.6371 213.929 73.7978C212.891 73.9461 212.359 73.3775 212.359 72.0798Z" fill="#8B231D"/>
</svg>
