<svg width="1038" height="392" viewBox="0 0 1038 392" fill="none" xmlns="http://www.w3.org/2000/svg">
<path d="M156.57 187.752C145.089 178.81 133.579 169.907 122.083 160.986C120.874 159.723 132.91 155.722 134.311 155.594C139.434 155.131 144.718 156.543 148.943 159.398C158.285 165.712 160.865 177.809 156.57 187.752ZM152.739 193.393C145.592 202.918 132.901 209.119 120.776 208.642C93.2287 207.577 86.5093 178.116 88.9536 156.369C89.4828 151.682 90.2957 147.042 91.1175 142.409C94.476 144.902 97.7373 147.511 101.016 150.087C103.509 152.043 107.618 153.395 106.114 156.6C103.603 161.941 102.846 167.732 103.57 173.545C105.005 184.923 114.476 193.624 126.102 194.706C127.51 194.842 141.368 194.238 138.666 190.878C137.549 189.494 128.276 191.424 125.912 190.689C114.685 187.191 112.945 172.542 118.899 164.041C125.079 168.897 131.289 173.734 137.493 178.571C140.945 181.267 144.389 183.963 147.827 186.659C150.36 188.652 155.058 190.315 152.739 193.393ZM75.1581 122.934L74.7659 124.069C66.0162 118.195 59.0261 109.98 54.9155 100.418C52.5174 94.8538 48.5705 79.8947 58.3769 78.3324C66.4052 77.0618 71.6173 88.6943 73.5405 94.498C76.5659 103.637 76.6275 113.51 75.1581 122.934ZM190.211 219.791C186.359 207.788 173.146 200.757 163.672 193.335C159.803 190.3 159.808 190.551 161.459 186.169C162.451 183.532 163.199 180.81 163.614 178.039C164.389 172.844 164 167.506 162.183 162.54C154.329 141.153 125.473 133.924 109.661 151.304C105.837 148.282 101.954 145.345 98.089 142.385C96.5054 141.168 91.6848 138.774 91.9142 136.48C92.5682 129.874 92.3875 123.187 91.2829 116.638C88.6716 101.109 80.6384 86.7041 67.5553 77.3146C61.3075 72.8285 54.1723 68.1196 46.6043 66.101C39.2187 64.1391 37.956 70.7192 38.1229 76.5715C38.58 92.3344 49.0259 107.236 60.2029 117.848C63.8345 121.299 74.6962 126.803 74.0802 131.952C73.1814 139.429 72.3718 146.944 72.1919 154.465C71.8604 168.401 73.4894 183.057 82.5178 194.416C101.311 218.079 139.431 219.934 157.541 194.395C167.475 201.906 184.289 210.329 186.285 223.718C187.111 229.253 184.965 234.688 181.325 238.892C178.333 242.34 171.114 247.896 166.4 244.153C176.499 237.46 172.09 222.565 160.046 221.642C147.875 220.716 143.004 234.5 148.924 243.447C162.899 264.568 196.912 240.674 190.211 219.791Z" fill="#FFD699"/>
<path fill-rule="evenodd" clip-rule="evenodd" d="M853.202 197.156C853.533 199.398 853.857 201.65 854.195 203.902C855.715 203.454 857.112 202.941 858.633 202.492C858.349 200.528 858.041 198.447 857.767 196.517L857.562 195.727C856.115 196.211 854.615 196.664 853.202 197.156ZM855.671 181.687L857.656 181.409C858.081 184.353 858.522 187.302 858.951 190.256C860.077 189.956 861.03 189.57 862.121 189.271C862.357 190.861 862.594 192.465 862.828 194.063C861.748 194.391 860.713 194.742 859.657 195.076C859.991 197.323 860.32 199.573 860.647 201.825C861.644 201.594 862.813 201.086 863.827 200.865C864.064 202.499 864.307 204.136 864.544 205.773C863.49 206.115 862.458 206.469 861.381 206.793C861.81 209.75 862.246 212.714 862.678 215.671L860.604 215.921C860.197 213.097 859.776 210.269 859.367 207.432C857.87 207.906 856.386 208.378 854.923 208.872C855.371 211.952 855.829 215.029 856.277 218.097L854.205 218.395C853.776 215.443 853.345 212.494 852.905 209.55C851.848 209.856 850.744 210.286 849.735 210.535C849.499 208.898 849.253 207.26 849.021 205.628C850.069 205.283 851.115 204.931 852.185 204.604C851.858 202.345 851.518 200.093 851.194 197.833C850.088 198.129 849.135 198.518 848.02 198.816C847.789 197.225 847.552 195.642 847.318 194.049C848.332 193.681 849.457 193.372 850.489 193.01C850.028 189.931 849.583 186.852 849.13 183.775L851.193 183.486C851.632 186.435 852.061 189.386 852.499 192.335C853.991 191.858 855.477 191.381 856.938 190.9C856.491 187.864 856.041 184.82 855.599 181.787L855.671 181.687Z" fill="#FFD699"/>
<path d="M669.511 138.36L669.522 137.861C669.984 134.662 669.497 131.447 669.233 128.23C669.005 125.472 669.354 122.485 670.946 119.603L672.404 118.021C673.416 121.24 674.419 124.619 674.341 127.961C674.283 131.33 673.593 135.034 669.511 138.36ZM668.749 140.916L669.088 139.982L670.027 139.386C672.357 137.736 674.437 135.494 675.577 133.136C676.763 130.674 677.106 128.011 677.153 125.474C677.202 122.994 676.941 120.408 676.666 117.917C676.459 116.088 676.55 114.318 677.484 112.48L678.54 111.335L677.459 110.382L648.601 141.811C648.242 139.029 645.322 136.31 641.256 135.264C636.368 134.01 631.689 135.646 630.792 138.923C629.912 142.198 633.152 145.885 638.042 147.14C642.38 148.26 646.553 147.098 648.054 144.535L664.419 126.708C665.032 128.84 665.682 130.82 666.302 132.919C667.234 136.104 668.214 139.632 666.166 143.01C664.02 146.553 660.42 148.886 657.464 149.904L656.831 150.308L658.663 150.315C660.543 149.624 662.375 148.679 664.08 147.292C666.485 145.326 668.019 142.998 668.749 140.916Z" fill="#FFD699"/>
<path d="M245.569 67.2525L246.03 67.844C248.41 71.9744 251.922 75.2863 255.178 78.8145C257.966 81.8201 260.277 85.6093 261.059 90.3466L260.819 93.4648C256.69 90.5938 252.432 87.5347 249.466 83.5899C246.465 79.5941 243.867 74.6866 245.569 67.2525ZM244.131 63.6262L244.597 64.9908L244.046 66.4964C242.841 70.4517 242.464 74.8803 243.302 78.616C244.172 82.5227 246.188 85.9221 248.463 88.9261C250.681 91.8571 253.341 94.6423 255.948 97.3051C257.848 99.2532 259.366 101.394 259.956 104.349L259.776 106.609L261.9 106.769L266.788 45.0278C269.75 47.9435 275.642 48.5602 281.334 46.2474C288.181 43.4582 292.142 37.4697 290.174 32.8742C288.211 28.2731 281.067 26.8193 274.22 29.6085C268.148 32.076 264.351 37.0686 264.94 41.3691L262.164 76.3908C259.504 74.4476 256.933 72.6899 254.3 70.7977C250.293 67.9007 245.934 64.6334 245.227 58.9172C244.486 52.9231 246.551 47.0699 249.061 43.3034L249.43 42.271C248.387 41.6811 247.651 43.2977 247.286 43.8747C245.733 46.3155 244.459 49.0075 243.741 52.1233C242.742 56.5137 243.08 60.5566 244.131 63.6262Z" fill="#FFD699"/>
<path d="M738.807 192.468L719.872 224.471L720.581 224.874L738.823 194.049C739.355 195.545 741.306 196.719 743.694 196.843C746.563 196.983 748.969 195.54 749.07 193.621C749.177 191.697 746.926 190.019 744.057 189.87C741.519 189.745 739.333 190.875 738.807 192.468Z" fill="#FFD699"/>
<path d="M705.687 177.23L686.741 209.235L687.461 209.641L705.703 178.806C706.237 180.315 708.192 181.489 710.577 181.602C713.443 181.75 715.849 180.302 715.95 178.378C716.044 176.454 713.8 174.778 710.937 174.637C708.393 174.512 706.213 175.629 705.687 177.23Z" fill="#FFD699"/>
<path d="M720.03 199.165L708.682 218.344L709.405 218.748L720.049 200.741C720.58 202.243 722.54 203.417 724.92 203.537C727.784 203.676 730.192 202.236 730.296 200.313C730.397 198.39 728.156 196.713 725.291 196.565C722.743 196.442 720.567 197.559 720.03 199.165Z" fill="#FFD699"/>
<path d="M705.828 196.655L696.648 212.173L697.357 212.579L705.841 198.236C706.373 199.732 708.328 200.911 710.713 201.032C713.581 201.172 715.986 199.732 716.087 197.805C716.191 195.882 713.941 194.198 711.073 194.06C708.533 193.932 706.357 195.054 705.828 196.655Z" fill="#FFD699"/>
<path d="M688.413 207.192L721.68 222.395L720.536 224.793L687.261 209.591L688.413 207.192Z" fill="#FFD699"/>
<path d="M712.069 212.235L724.617 217.748L723.502 220.165L710.954 214.653L712.069 212.235Z" fill="#FFD699"/>
<path d="M736.105 189.627L750.415 194.51L750.054 195.517L735.741 190.631L736.105 189.627Z" fill="#FFD699"/>
<path d="M500.501 236.644L500.197 299.452L502.166 299.456L502.451 239.883C505.37 242.367 510.832 242.555 515.903 240.058C522.009 237.045 525.232 231.283 523.115 227.192C520.99 223.096 514.325 222.22 508.228 225.236C502.815 227.897 499.667 232.726 500.501 236.644Z" fill="#FFD699"/>
<path d="M494.548 243.152L530.051 236.757L530.526 239.237L495.02 245.63L494.548 243.152Z" fill="#FFD699"/>
<path d="M494.497 253.764L529.995 247.374L530.472 249.854L494.966 256.241L494.497 253.764Z" fill="#FFD699"/>
<path d="M331.527 281.256L272.033 231.367L270.466 233.145L326.906 280.467C322.234 281.142 317.745 285.941 316.117 292.518C314.158 300.422 317.084 307.894 322.655 309.207C328.223 310.531 334.327 305.184 336.285 297.272C338.018 290.257 335.908 283.591 331.527 281.256Z" fill="#FFD699"/>
<path d="M305.338 306.412L327.306 269.203L330.035 270.728L308.066 307.945L305.338 306.412Z" fill="#FFD699"/>
<path d="M295.285 297.974L317.252 260.755L319.981 262.293L298.006 299.507L295.285 297.974Z" fill="#FFD699"/>
<path d="M411.164 268.091L390.957 203.549L388.846 204.176L407.982 265.263C404.02 263.54 398.115 265.122 393.542 269.434C388.047 274.635 386.558 281.835 390.21 285.526C393.875 289.214 401.304 287.989 406.799 282.787C411.674 278.19 413.396 272.007 411.164 268.091Z" fill="#FFD699"/>
<path d="M987.925 72.3901L959.187 45.0351L958.495 45.7247L986.04 71.9541C984.1 72.1089 982.126 73.9751 981.281 76.6452C980.263 79.8477 981.268 83 983.519 83.6807C985.788 84.3654 988.444 82.3217 989.454 79.1119C990.35 76.2668 989.663 73.4678 987.925 72.3901Z" fill="#FFD699"/>
<path d="M991.38 50.7449L973.038 33.2932L972.347 33.9804L989.495 50.2992C987.555 50.4531 985.581 52.3194 984.727 54.9846C983.718 58.192 984.715 61.3418 986.982 62.0201C989.243 62.7097 991.891 60.6635 992.91 57.4562C993.805 54.6086 993.119 51.8097 991.38 50.7449Z" fill="#FFD699"/>
<path d="M1003.08 33.4682L982.686 14.0539L981.986 14.7459L1001.19 33.0225C999.252 33.1846 997.277 35.0436 996.433 37.708C995.415 40.9186 996.42 44.0684 998.671 44.754C1000.94 45.4314 1003.6 43.3877 1004.61 40.1795C1005.5 37.3352 1004.82 34.546 1003.08 33.4682Z" fill="#FFD699"/>
<path d="M961.055 48.3503L957.227 44.6802L982.293 13.797L985.821 17.3001L961.055 48.3503Z" fill="#FFD699"/>
<path d="M455.454 241.071L423.773 160.63L421.746 161.397L452.115 238.495C448.084 237.071 442.378 239.023 438.18 243.588C433.131 249.084 432.172 256.283 436.05 259.668C439.919 263.055 447.145 261.35 452.193 255.859C456.673 250.98 457.921 244.77 455.454 241.071Z" fill="#FFD699"/>
<path d="M490.625 186.559L470.409 135.241L468.374 136.002L487.281 183.984C483.25 182.557 477.549 184.512 473.346 189.071C468.302 194.565 467.343 201.769 471.216 205.157C475.086 208.549 482.309 206.836 487.362 201.34C491.839 196.467 493.092 190.253 490.625 186.559Z" fill="#FFD699"/>
<path d="M424.964 169.722L420.769 158.971L469.178 131.257L472.923 141.424L424.964 169.722Z" fill="#FFD699"/>
<path d="M817.328 202.705L803.853 163.253L802.855 163.579L815.777 201.389C813.868 200.62 811.071 201.437 808.949 203.556C806.391 206.09 805.769 209.539 807.563 211.256C809.354 212.973 812.873 212.31 815.433 209.76C817.7 207.503 818.439 204.54 817.328 202.705Z" fill="#FFD699"/>
<path d="M835.496 177.171L826.896 152.006L825.899 152.329L833.95 175.857C832.039 175.085 829.242 175.905 827.122 178.02C824.559 180.559 823.94 184.013 825.728 185.722C827.523 187.436 831.046 186.765 833.599 184.226C835.865 181.979 836.613 179.006 835.496 177.171Z" fill="#FFD699"/>
<path d="M804.224 167.667L802.439 162.398L826.391 150.056L827.975 155.033L804.224 167.667Z" fill="#FFD699"/>
<path d="M418.478 299.122L440.082 369.897L441.867 369.372L421.157 301.531C424.504 303.011 429.514 301.716 433.404 298.081C438.094 293.717 439.4 287.628 436.323 284.486C433.245 281.344 426.953 282.333 422.265 286.693C418.113 290.57 416.623 295.794 418.478 299.122Z" fill="#FFD699"/>
<path d="M383.833 339.283L397.621 384.427L399.413 383.902L386.511 341.693C389.861 343.167 394.866 341.881 398.766 338.245C403.449 333.878 404.758 327.786 401.684 324.647C398.602 321.495 392.313 322.497 387.627 326.857C383.468 330.731 381.97 335.958 383.833 339.283Z" fill="#FFD699"/>
<path d="M440.153 361.624L443.008 371.089L399.764 391.623L397.254 382.698L440.153 361.624Z" fill="#FFD699"/>
<path d="M435.331 347.931L438.188 357.384L394.942 377.931L392.431 369.002L435.331 347.931Z" fill="#FFD699"/>
<path d="M959.639 105.272L998.217 131.315L998.803 130.499L961.639 105.412C963.59 104.92 965.283 102.69 965.67 99.8269C966.139 96.3878 964.55 93.3368 962.133 93.0248C959.713 92.7104 957.359 95.2516 956.89 98.6859C956.469 101.738 957.672 104.475 959.639 105.272Z" fill="#FFD699"/>
<path d="M935.788 141.842L974.366 167.884L974.943 167.066L937.789 141.978C939.739 141.489 941.425 139.255 941.809 136.393C942.288 132.948 940.7 129.905 938.272 129.591C935.844 129.277 933.501 131.812 933.04 135.255C932.619 138.306 933.822 141.044 935.788 141.842Z" fill="#FFD699"/>
<path d="M965.392 127.234L988.513 142.839L989.1 142.019L967.393 127.367C969.346 126.881 971.036 124.64 971.423 121.782C971.892 118.341 970.307 115.295 967.876 114.981C965.459 114.672 963.113 117.202 962.643 120.637C962.223 123.694 963.425 126.426 965.392 127.234Z" fill="#FFD699"/>
<path d="M959.677 143.743L978.381 156.357L978.967 155.541L961.677 143.877C963.63 143.38 965.312 141.147 965.7 138.284C966.177 134.844 964.591 131.806 962.16 131.49C959.743 131.168 957.389 133.712 956.928 137.148C956.507 140.196 957.709 142.937 959.677 143.743Z" fill="#FFD699"/>
<path d="M994.353 127.684L998.789 130.7L976.445 169.412L972.335 166.498L994.353 127.684Z" fill="#FFD699"/>
<path d="M987.834 123.4L992.269 126.413L969.916 165.133L965.815 162.225L987.834 123.4Z" fill="#FFD699"/>
<path d="M622.686 173.163L610.876 242.865L612.977 243.208L624.199 176.947C626.885 180.098 632.686 181.213 638.544 179.391C645.595 177.197 650.055 171.582 648.512 166.852C646.961 162.122 639.996 160.066 632.943 162.265C626.696 164.213 622.484 168.839 622.686 173.163Z" fill="#FFD699"/>
<path d="M645.721 167.574C646.408 169.568 642.682 172.57 637.407 174.296C632.126 176.013 627.295 175.792 626.621 173.799C625.937 171.8 629.665 168.795 634.936 167.08C640.211 165.353 645.037 165.584 645.721 167.574Z" fill="#FFD699"/>
<path d="M907.541 183.701L896.108 144.324L895.114 144.604L906.074 182.341C904.219 181.498 901.445 182.179 899.25 184.16C896.626 186.546 895.86 189.911 897.536 191.683C899.212 193.442 902.71 192.938 905.344 190.552C907.676 188.434 908.535 185.556 907.541 183.701Z" fill="#FFD699"/>
<path d="M926.585 159.395L919.278 134.278L918.292 134.55L925.109 158.034C923.273 157.201 920.481 157.88 918.294 159.866C915.67 162.25 914.896 165.612 916.58 167.377C918.266 169.138 921.746 168.645 924.388 166.253C926.71 164.135 927.587 161.25 926.585 159.395Z" fill="#FFD699"/>
<path d="M896.276 148.675L894.753 143.409L918.876 132.347L920.2 137.306L896.276 148.675Z" fill="#FFD699"/>
<path d="M875.285 197.446L886.281 235.295L887.417 234.977L876.974 199.005C879.091 199.967 882.282 199.186 884.792 196.912C887.811 194.176 888.69 190.308 886.767 188.286C884.84 186.262 880.828 186.838 877.811 189.571C875.133 192.007 874.14 195.309 875.285 197.446Z" fill="#FFD699"/>
<path d="M885.542 189.289C886.364 190.14 885.223 192.516 882.983 194.604C880.739 196.695 878.258 197.695 877.43 196.848C876.604 196.005 877.743 193.629 879.984 191.541C882.214 189.45 884.712 188.45 885.542 189.289Z" fill="#FFD699"/>
<path d="M902 178.833C900.947 178.279 899.819 177.786 898.664 177.387C895.028 176.153 890.918 175.961 887.124 177.071C884.367 177.793 880.628 179.998 878.37 182.591C876.04 185.144 875.042 187.689 875.034 187.661C875.05 187.689 876.458 185.337 878.984 183.198C881.469 180.991 885.101 179.346 887.605 178.671C891.085 177.65 894.817 177.346 898.499 177.988C899.669 178.192 900.838 178.504 901.957 178.934L903.177 179.459L902 178.833Z" fill="#FFD699"/>
<path d="M316.275 101.301L361.009 137.756L362.151 136.414L319.717 101.847C323.176 101.298 326.466 97.6827 327.602 92.7784C328.972 86.8856 326.72 81.3679 322.57 80.4474C318.417 79.5333 313.946 83.5648 312.574 89.4601C311.359 94.6795 312.995 99.6081 316.275 101.301Z" fill="#FFD699"/>
<path d="M298.335 201.662L328.732 226.425L329.871 225.083L301.777 202.208C305.244 201.658 308.527 198.043 309.669 193.139C311.032 187.256 308.779 181.728 304.631 180.817C300.478 179.893 296.001 183.925 294.633 189.82C293.42 195.048 295.061 199.976 298.335 201.662Z" fill="#FFD699"/>
<path d="M256.014 194.794L318.676 245.853L319.823 244.519L259.453 195.327C262.913 194.778 266.202 191.165 267.337 186.272C268.714 180.379 266.455 174.854 262.307 173.94C258.154 173.019 253.683 177.05 252.311 182.945C251.096 188.173 252.732 193.101 256.014 194.794Z" fill="#FFD699"/>
<path d="M301.396 131.747L364.053 182.814L365.197 181.472L304.832 132.285C308.297 131.736 311.582 128.121 312.721 123.225C314.093 117.331 311.84 111.801 307.68 110.88C303.536 109.972 299.056 114.001 297.691 119.894C296.478 125.126 298.116 130.055 301.396 131.747Z" fill="#FFD699"/>
<path d="M309.035 173.135L346.599 203.737L347.741 202.403L312.477 173.669C315.937 173.12 319.221 169.504 320.363 164.613C321.735 158.72 319.478 153.192 315.326 152.279C311.174 151.358 306.706 155.391 305.329 161.285C304.117 166.515 305.755 171.443 309.035 173.135Z" fill="#FFD699"/>
<path d="M314.852 241.643L360.212 178.291L365.005 181.555L319.638 244.911L314.852 241.643Z" fill="#FFD699"/>
<path d="M334.552 194.479L351.172 170.49L356.014 173.686L339.385 197.67L334.552 194.479Z" fill="#FFD699"/>
<path d="M294.22 136.308L310.133 108.438L312.184 109.551L296.266 137.421L294.22 136.308Z" fill="#FFD699"/>
<path d="M317.492 109.113L333.412 81.2423L335.463 82.3436L319.537 110.227L317.492 109.113Z" fill="#FFD699"/>
<path d="M325.056 115.275L340.974 87.4042L343.022 88.5128L327.099 116.393L325.056 115.275Z" fill="#FFD699"/>
<path d="M955.191 58.3079L954.871 58.4383C952.733 58.9845 950.837 60.1052 948.875 61.0914C947.205 61.9342 945.246 62.4957 943.022 62.2883L941.645 61.824C943.414 60.3856 945.285 58.9099 947.39 58.098C949.531 57.2698 952.047 56.7204 955.191 58.3079ZM956.982 58.115L956.316 58.149L955.701 57.7438C954.065 56.7674 952.12 56.0997 950.333 56.0235C948.484 55.9481 946.725 56.4246 945.107 57.0494C943.536 57.6661 941.977 58.4845 940.472 59.2859C939.383 59.8848 938.252 60.2794 936.853 60.1968L935.856 59.8597L935.538 60.7502L962.743 69.959C961.083 70.8918 960.126 73.3406 960.515 76.0496C960.984 79.3056 963.219 81.6856 965.505 81.3777C967.795 81.0641 969.282 78.1663 968.811 74.9184C968.402 72.0279 966.598 69.8326 964.596 69.5839L949.171 64.3652C950.349 63.4479 951.435 62.5476 952.594 61.6384C954.354 60.2511 956.327 58.7657 958.97 59.1198C961.751 59.5023 964.156 61.0582 965.55 62.5687L965.972 62.8434L965.499 61.7405C964.587 60.7924 963.518 59.9399 962.201 59.2722C960.337 58.3322 958.491 58.0194 956.982 58.115Z" fill="#FFD699"/>
<path d="M186.734 118.503L162.571 26.5016L160.247 27.0843L183.412 115.27C179.187 113.211 172.687 114.631 167.492 119.111C161.25 124.496 159.258 132.26 163.051 136.45C166.845 140.64 174.986 139.669 181.226 134.285C186.767 129.509 188.954 122.868 186.734 118.503Z" fill="#FFD699"/>
<path d="M232.361 63.2032L216.947 4.51932L214.618 5.09953L229.04 59.9658C224.815 57.9124 218.318 59.3394 213.128 63.8117C206.876 69.2022 204.885 76.958 208.682 81.1581C212.479 85.3484 220.615 84.376 226.854 78.9985C232.4 74.2053 234.585 67.5669 232.361 63.2032Z" fill="#FFD699"/>
<path d="M162.692 36.6035L159.502 24.3113L216.124 0L218.894 11.6026L162.692 36.6035Z" fill="#FFD699"/>
<path d="M565.436 131.28L549.956 133.663L548.615 125.377L564.095 123.007L565.436 131.28Z" fill="#FFD699"/>
<path d="M529.172 177.138L519.575 117.757L517.88 118.014L527.023 174.606C524.159 172.86 519.429 173.45 515.415 176.302C510.6 179.719 508.639 185.118 511.056 188.36C513.465 191.594 519.331 191.438 524.153 188.019C528.436 184.976 530.448 180.389 529.172 177.138Z" fill="#FFD699"/>
<path d="M601.933 166.761L592.061 105.664L590.367 105.922L599.788 164.238C596.919 162.496 592.188 163.084 588.183 165.935C583.358 169.352 581.401 174.756 583.81 177.991C586.224 181.227 592.093 181.072 596.913 177.644C601.19 174.614 603.211 170.021 601.933 166.761Z" fill="#FFD699"/>
<path d="M569.903 152.36L563.234 111.115L561.528 111.38L567.754 149.838C564.888 148.087 560.151 148.671 556.149 151.521C551.326 154.952 549.364 160.34 551.779 163.582C554.194 166.816 560.065 166.66 564.884 163.241C569.156 160.204 571.174 155.61 569.903 152.36Z" fill="#FFD699"/>
<path d="M593.503 114.035L519.083 125.465L517.748 117.187L592.171 105.756L593.503 114.035Z" fill="#FFD699"/>
<path d="M123.134 229.199C142.011 187.254 182.744 160.538 220.36 139.874C243.018 127.431 266.404 116.217 290.626 107.746C314.301 99.4646 341.198 92.3068 366.151 95.7986C378.095 97.4825 389.825 103.513 395.279 115.31C399.908 125.309 398.465 137.525 396.056 148.013C390.78 170.983 378.79 191.905 367.852 212.315C356.672 233.206 345.476 254.531 340.424 278.07C337.412 292.089 336.08 308.764 341.446 322.298C349.125 341.686 370.664 339.413 386.583 334.251C411.988 326.011 435.425 310.146 457.296 294.47C475.994 281.069 494.015 266.596 511.512 251.492C545.23 222.394 578.644 191.904 619.2 174.048C643.825 163.219 671.208 157.52 697.713 160.336C709.994 161.648 721.257 165.261 731.322 172.805C739.812 179.146 746.853 187.427 754.255 195.05C768.942 210.183 785.924 220.172 806.539 223.01C827.765 225.926 849.629 221.009 869.515 212.922C938.989 184.649 988.998 111.294 998.152 34.2948L997.327 34.285C991.457 83.7349 969.075 130.092 935.779 165.532C904.604 198.72 860.396 224.142 815.471 222.866C792.18 222.196 772.302 212.058 755.739 195.346C748.739 188.282 742.188 180.741 734.617 174.329C726.469 167.434 717.38 163.171 707.148 160.965C658.444 150.477 608.395 173.969 568.877 202.817C543.145 221.588 519.917 243.774 495.284 264.06C474.039 281.559 452.015 298.208 428.745 312.537C417.097 319.716 405.037 326.31 392.39 331.248C382.697 335.027 372.081 338.103 361.713 336.941C331.672 333.603 337.744 289.419 343.639 268.577C350.439 244.546 363.265 222.856 374.792 201.099C384.69 182.413 395.221 162.246 398.293 140.849C399.613 131.633 399.432 122.292 395.525 113.835C391.396 104.909 382.804 99.5181 374.096 96.694C363.919 93.4032 352.787 93.7914 342.269 94.8465C329.47 96.1187 316.816 98.8844 304.403 102.447C266.685 113.254 229.981 131.802 196.384 152.939C166.964 171.444 137.469 195.325 122.432 228.752L123.134 229.199Z" fill="#FFD699"/>
<path d="M91.9441 200.181C112.569 158.94 154.975 133.749 194.007 114.488C217.515 102.896 241.727 92.5564 266.698 84.9943C291.106 77.5901 318.758 71.4331 344.078 75.8681C356.197 77.992 367.964 84.4602 373.127 96.4566C377.507 106.626 375.638 118.782 372.84 129.179C366.694 151.948 353.777 172.417 341.961 192.425C329.867 212.889 317.751 233.795 311.818 257.15C308.284 271.044 306.378 287.667 311.397 301.4C318.586 321.071 340.613 319.594 357.011 315.033C383.185 307.741 407.602 292.748 430.415 277.893C449.916 265.196 468.765 251.393 487.105 236.948C522.429 209.112 557.503 179.882 599.441 163.538C624.902 153.619 652.998 148.942 679.926 152.757C692.405 154.528 703.764 158.558 713.77 166.474C722.21 173.138 729.111 181.675 736.411 189.574C750.885 205.247 767.868 215.868 788.778 219.474C810.318 223.184 832.771 219.084 853.309 211.737C925.073 186.056 978.481 114.585 990.359 37.9422L989.517 37.8911C981.883 87.1158 957.536 132.631 922.436 166.824C889.544 198.847 843.642 222.613 797.893 219.657C774.174 218.13 754.24 207.245 737.917 189.92C731.007 182.597 724.588 174.817 717.078 168.12C709.006 160.915 699.877 156.317 689.518 153.732C640.222 141.424 588.417 163.057 547.192 190.417C520.338 208.229 495.926 229.551 470.147 248.912C447.902 265.615 424.911 281.439 400.71 294.893C388.599 301.642 376.091 307.786 363.034 312.244C353.026 315.667 342.105 318.336 331.578 316.806C301.068 312.341 308.711 268.388 315.417 247.763C323.142 224.005 336.934 202.789 349.404 181.462C360.111 163.155 371.511 143.378 375.351 122.103C377.005 112.942 377.128 103.586 373.428 94.9883C369.512 85.9091 360.93 80.2067 352.148 77.0618C341.881 73.3828 330.524 73.3601 319.768 74.0092C306.676 74.8139 293.689 77.1079 280.914 80.2051C242.108 89.6043 204.083 106.784 169.137 126.66C138.535 144.064 107.681 166.838 91.2415 199.699L91.9441 200.181Z" fill="#FFD699"/>
<path d="M61.108 170.001C83.5056 129.536 127.56 105.928 167.987 88.1311C192.331 77.4134 217.356 67.985 243.062 61.3499C268.183 54.8687 296.576 49.7392 322.239 55.1135C334.528 57.6823 346.298 64.5897 351.168 76.7781C355.299 87.1052 352.991 99.2037 349.79 109.492C342.773 132.024 328.932 152.007 316.219 171.566C303.218 191.574 290.175 212.027 283.356 235.149C279.291 248.917 276.801 265.461 281.462 279.389C288.139 299.323 310.647 298.669 327.508 294.713C354.431 288.402 379.811 274.327 403.562 260.325C423.857 248.35 443.533 235.256 462.704 221.498C499.63 194.982 536.354 167.067 579.648 152.293C605.927 143.326 634.72 139.7 662.045 144.512C674.701 146.74 686.151 151.196 696.089 159.487C704.469 166.464 711.225 175.255 718.403 183.426C732.642 199.641 749.598 210.888 770.79 215.279C792.63 219.791 815.654 216.521 836.827 209.946C910.832 186.947 967.632 117.47 982.285 41.2986L981.424 41.2176C972.019 90.1383 945.696 134.744 908.778 167.625C874.203 198.405 826.621 220.452 780.079 215.798C755.956 213.391 736 201.765 719.921 183.821C713.132 176.245 706.835 168.231 699.413 161.266C691.417 153.76 682.264 148.817 671.788 145.845C621.95 131.705 568.431 151.393 525.486 177.213C497.532 194.026 471.944 214.427 445.018 232.829C421.797 248.7 397.837 263.662 372.718 276.22C360.155 282.498 347.197 288.183 333.74 292.153C323.426 295.201 312.204 297.473 301.521 295.535C270.572 289.936 279.818 246.272 287.333 225.916C295.994 202.441 310.756 181.74 324.171 160.884C335.691 142.976 347.97 123.636 352.588 102.512C354.581 93.4049 355.012 84.0591 351.523 75.3268C347.833 66.1034 339.273 60.0833 330.425 56.6045C320.08 52.5479 308.504 52.099 297.517 52.3526C284.149 52.6613 270.838 54.4749 257.711 57.0939C217.839 65.0418 178.512 80.7934 142.233 99.3731C110.46 115.631 78.2522 137.254 60.4102 169.496L61.108 170.001Z" fill="#FFD699"/>
<path d="M30.6747 138.684C54.8456 99.0603 100.538 77.0917 142.335 60.8061C167.505 51.0042 193.32 42.5044 219.747 36.8255C245.573 31.2876 274.681 27.2212 300.663 33.5476C313.106 36.5743 324.875 43.9249 329.439 56.2901C333.308 66.7671 330.557 78.7724 326.953 88.9374C319.051 111.215 304.283 130.672 290.679 149.755C276.765 169.28 262.788 189.244 255.068 212.11C250.476 225.715 247.384 242.164 251.676 256.257C257.818 276.446 280.786 276.622 298.107 273.306C325.757 268.002 352.1 254.864 376.768 241.754C397.86 230.54 418.34 218.181 438.339 205.132C476.861 180.008 515.218 153.459 559.835 140.304C586.928 132.316 616.394 129.772 644.093 135.605C656.919 138.309 668.437 143.186 678.303 151.844C686.609 159.132 693.204 168.173 700.248 176.611C714.223 193.352 731.14 205.236 752.605 210.412C774.713 215.733 798.292 213.328 820.092 207.546C896.28 187.312 956.491 119.965 973.948 44.3471L973.065 44.2313C961.86 92.7995 933.55 136.411 894.822 167.913C858.566 197.405 809.339 217.669 762.044 211.281C737.534 207.961 717.578 195.596 701.782 177.07C695.11 169.236 688.964 160.994 681.623 153.746C673.722 145.939 664.553 140.656 653.973 137.297C603.642 121.301 548.427 138.993 503.806 163.212C474.752 178.972 447.991 198.412 419.942 215.808C395.746 230.808 370.821 244.874 344.804 256.496C331.786 262.308 318.388 267.509 304.542 270.977C293.925 273.645 282.411 275.485 271.587 273.156C240.223 266.402 251.098 223.1 259.433 203.01C269.036 179.862 284.764 159.729 299.136 139.366C311.469 121.896 324.62 103.02 330.036 82.0648C332.362 73.0416 333.117 63.7112 329.847 54.8476C326.391 45.4873 317.869 39.1415 308.963 35.3458C298.552 30.8994 286.761 30.0242 275.557 29.8711C261.919 29.6758 248.285 30.9902 234.822 33.1157C193.919 39.5823 153.307 53.8679 115.707 71.0797C82.7818 86.1628 49.2405 106.57 29.9785 138.143L30.6747 138.684Z" fill="#FFD699"/>
<path d="M0.693746 106.221C26.642 67.515 73.9472 47.2579 117.088 32.5323C143.075 23.6646 169.67 16.13 196.798 11.4462C223.304 6.86124 253.111 3.88158 279.39 11.1812C291.97 14.6722 303.722 22.4629 307.967 34.9909C311.559 45.6129 308.359 57.5137 304.346 67.5393C295.56 89.5136 279.861 108.43 265.36 127.003C250.529 145.993 235.622 165.434 226.994 188.007C221.866 201.444 218.171 217.78 222.077 232.029C227.674 252.436 251.075 253.47 268.842 250.8C297.207 246.523 324.49 234.384 350.075 222.187C371.941 211.765 393.231 200.165 414.045 187.871C454.152 164.181 494.12 139.072 540.043 127.585C567.922 120.606 598.039 119.159 626.081 126.031C639.067 129.208 650.646 134.512 660.421 143.535C668.644 151.135 675.07 160.424 681.974 169.117C695.669 186.374 712.51 198.886 734.222 204.859C756.58 211.016 780.696 209.482 803.113 204.513C881.446 187.127 945.047 122.043 965.336 47.0886L964.453 46.9443C951.417 95.0831 921.128 137.626 880.601 167.673C842.665 195.807 791.815 214.242 743.813 206.09C718.94 201.86 699.006 188.754 683.527 169.629C676.977 161.558 670.982 153.083 663.744 145.56C655.935 137.459 646.781 131.841 636.105 128.092C585.323 110.215 528.461 125.85 482.168 148.393C452.036 163.068 424.103 181.513 394.936 197.852C369.776 211.948 343.904 225.089 317.002 235.73C303.539 241.062 289.71 245.763 275.483 248.712C264.574 250.981 252.774 252.394 241.815 249.66C210.069 241.734 222.585 198.843 231.74 179.073C242.301 156.29 259.005 136.743 274.322 116.928C287.476 99.9136 301.512 81.5325 307.717 60.7827C310.391 51.8461 311.469 42.5433 308.428 33.563C305.213 24.0739 296.735 17.4209 287.785 13.2905C277.317 8.45762 265.333 7.13513 253.914 6.56141C240.023 5.86289 226.08 6.67324 212.283 8.29717C170.379 13.2395 128.501 25.9976 89.6092 41.8164C55.5451 55.6588 20.6795 74.8147 0 105.661L0.693746 106.221Z" fill="#FFD699"/>
<path fill-rule="evenodd" clip-rule="evenodd" d="M645.574 113.082C639.786 115.506 634.999 116.024 631.214 114.64C627.916 113.369 625.994 111.06 625.449 107.713C624.945 104.421 625.901 101.507 628.313 98.9649C631.049 96.0784 634.847 94.7222 639.709 94.8962C640.712 96.1074 640.807 98.4456 639.994 101.91C639.743 101.332 638.544 101.507 636.39 102.429C634.107 103.411 632.81 104.912 632.498 106.933C631.979 110.166 633.537 111.897 637.169 112.128C639.952 112.302 642.914 111.696 646.056 110.309C646.158 110.368 645.996 111.291 645.574 113.082ZM596.063 126.244C594.131 125.262 591.718 125.119 588.818 125.811C582.977 127.139 577.595 131.93 572.668 140.186C569.81 145.035 568.25 149.134 567.988 152.483C567.775 155.427 568.533 157.446 570.26 158.544C571.944 159.582 573.995 159.582 576.408 158.544C578.969 157.39 581.242 155.37 583.229 152.483C586.904 147.172 588.833 142.234 589.016 137.674C589.143 133.749 588.089 131.44 585.851 130.747L594.141 127.283C595.961 130.401 599.403 131.556 604.468 130.747C604.576 131.208 604.391 131.786 603.917 132.479C602.941 133.749 601.033 134.846 598.188 135.77C598.224 138.426 596.879 141.831 594.149 145.988C591.361 150.145 588.048 153.782 584.21 156.899C580.007 160.307 576.126 162.181 572.571 162.527C568.462 162.989 565.326 161.23 563.16 157.245C561.672 154.185 561.713 149.511 563.283 143.217C565.085 136.058 568.38 130.227 573.167 125.724C578.791 120.469 584.575 117.843 590.521 117.843C593.407 117.843 595.472 118.537 596.718 119.923C598.073 121.538 597.856 123.646 596.063 126.244ZM554.912 112.735C554.681 112.735 553.401 112.879 551.073 113.168C548.194 113.572 545.605 113.86 543.307 114.034C535.243 114.611 528.492 113.947 523.057 112.042C523.984 111.175 524.532 109.877 524.707 108.145C523.948 108.607 527.886 108.347 536.521 107.365C545.647 106.268 552.641 104.941 557.505 103.383C558.957 102.92 558.955 104.334 557.495 107.625C557.027 108.723 556.448 109.906 555.764 111.175C555.166 112.33 554.882 112.849 554.912 112.735ZM532.957 117.756C536.139 118.162 537.071 121.683 535.754 128.322C534.673 133.864 532.979 138.569 530.671 142.439C543.137 125.869 551.69 117.756 556.33 118.102C560.277 117.815 562.041 119.633 561.624 123.56C561.282 126.562 559.626 131.122 556.659 137.242L549.029 152.136C546.66 157.102 545.826 160.102 546.529 161.143C549.026 161.951 552.243 160.825 556.18 157.765L555.844 159.67C555.581 159.785 554.746 160.421 553.34 161.576C551.761 162.73 550.388 163.654 549.22 164.346C545.328 166.599 541.901 166.885 538.944 165.213C537.255 164.404 537.612 161.345 540.018 156.033C540.454 155.053 541.617 152.656 543.504 148.846C545.031 145.729 546.144 143.303 546.838 141.571C549.031 135.971 550.183 132.97 550.291 132.566C551.057 130.14 550.862 128.928 549.707 128.928C547.475 128.639 543.026 133.287 536.357 142.87C530.198 151.645 526.06 158.574 523.947 163.654C520.903 163.596 518.306 163.163 516.156 162.355C517.507 158.602 520.85 151.301 526.184 140.445C529.663 131.556 530.198 127.081 527.789 127.023C524.36 126.676 515.603 138.889 501.518 163.654C498.122 163.192 495.376 162.557 493.283 161.748C502.365 142.294 507.671 130.573 509.2 126.59C510.263 123.705 509.511 122.202 506.943 122.087C504.895 121.971 502.417 122.607 499.505 123.993L499.334 122.693C501.175 121.423 503.184 120.384 505.364 119.576C509.812 117.843 513.042 117.96 515.058 119.923C517.08 123.79 514.735 131.469 508.018 142.956C510.721 138.685 513.8 134.414 517.255 130.14C524.091 121.653 529.322 117.526 532.957 117.756ZM431.593 111.782C440.088 108.086 447.136 101.822 452.737 92.9896C454.965 89.4099 456.268 86.3798 456.646 83.8986C457.068 81.2442 456.37 79.8576 454.556 79.7403C451.21 79.5097 446.435 84.6203 440.229 95.0675C434.725 104.19 431.847 109.762 431.593 111.782ZM406.73 109.877C410.676 112.822 415.293 114.12 420.582 113.773C425.305 103.901 431.986 93.9419 440.624 83.8986C444.058 79.9143 448.186 77.5465 453.005 76.7965C457.899 75.9886 461.219 77.1715 462.968 80.3473C465.834 85.3715 462.735 92.297 453.673 101.13C445.168 109.386 437.307 114.265 430.092 115.765C417.944 140.416 414.085 155.572 418.515 161.23C420.406 163.654 423.009 163.308 426.328 160.19C429.426 157.245 432.404 152.597 435.259 146.247C437.26 141.802 438.001 136.665 437.485 130.832C435.166 132.161 433.3 132.017 431.886 130.401C430.4 128.842 430.659 127.224 432.666 125.551C435.803 122.895 438.625 121.625 441.134 121.741C443.601 121.799 445.292 123.242 446.21 126.07C448.429 126.186 450.368 125.523 452.026 124.079L452.89 125.378C451.01 127.224 448.974 128.467 446.782 129.101C447.408 136.029 445.477 142.697 440.988 149.105C436.203 155.975 431.596 160.565 427.167 162.873C423.107 165.015 419.728 166.093 417.029 166.11C425.195 186.557 445.601 175.89 456.86 165.82C463.403 159.931 468.33 154.041 471.64 148.153L473.534 147.547C471.518 156.15 471.688 161.114 474.046 162.44C476.945 164.115 480.748 162.962 485.451 158.978C487.841 156.957 489.929 154.764 491.719 152.396L489.412 150.665C485.726 154.936 482.895 157.102 480.917 157.158C479.154 157.275 478.27 155.831 478.267 152.829C478.249 145.785 481.013 138.598 486.556 131.265C490.457 130.287 492.159 129.101 491.664 127.715C487.238 128.293 484.478 127.715 483.382 125.985C480.209 133.951 477.359 139.088 474.836 141.398C473.222 142.9 471.321 143.852 469.133 144.256C467.005 144.66 465.219 144.428 463.776 143.563C460.15 141.37 460.568 137.011 465.03 130.486C468.928 124.773 473.667 121.625 479.25 121.047C482.041 120.759 484.446 121.047 486.465 121.914C487.175 116.892 484.862 114.323 479.525 114.208C474.461 114.148 469.306 116.141 464.068 120.183C460.585 122.839 457.95 126.099 456.164 129.968C454.511 133.547 453.814 137.011 454.072 140.358C454.312 143.765 455.45 146.306 457.485 147.98C459.645 149.827 462.487 150.318 466.008 149.451C459.919 159.901 450.265 166.628 437.047 169.63C431.569 170.899 426.882 171.044 422.988 170.062C420.001 169.294 417.991 167.977 416.962 166.11C412.062 166.108 409.423 162.577 409.049 155.514C408.542 145.988 411.839 133.26 418.937 117.323C413.131 118.306 408.518 118.075 405.092 116.632C404.522 116.4 404.515 115.13 405.076 112.822C405.695 110.512 406.246 109.529 406.73 109.877ZM394.088 131.527C399.894 126.445 402.023 123.242 400.473 121.914C399.395 120.992 397.599 121.336 395.087 122.953C392.705 124.511 390.203 126.85 387.579 129.968C381.221 137.53 377.984 144.227 377.863 150.057C377.741 155.253 379.649 158.372 383.585 159.41C387.72 160.565 393.125 158.919 399.803 154.474C401.149 153.32 401.355 154.387 400.415 157.679C396.34 160.393 392.063 162.24 387.587 163.221C378.63 165.185 373.163 161.892 371.18 153.348C370.07 148.441 370.675 143.274 372.996 137.848C375.045 132.998 378.126 128.61 382.239 124.685C386.261 120.874 390.333 118.393 394.453 117.238C398.819 116.024 402.265 116.632 404.79 119.057C405.486 119.691 405.895 120.962 406.021 122.867C406.173 124.887 405.9 126.763 405.204 128.495C403.432 133.171 399.727 134.182 394.088 131.527ZM638.505 158.198C637.356 159.468 636.002 160.537 634.443 161.402C631.264 163.134 628.668 163.02 626.654 161.056C624.337 156.783 626.357 149.134 632.718 138.107C621.026 155.023 612.86 163.308 608.22 162.962C603.487 163.596 601.548 161.576 602.396 156.899C602.59 155.746 604.421 150.634 607.889 141.571C613.166 127.484 615.662 120.327 615.376 120.096C612.879 119.287 610.425 120.151 608.012 122.693L607.078 121.653L609.038 119.837C610.287 118.622 611.473 117.642 612.598 116.892C616.193 114.467 619.476 114.061 622.449 115.679C624.179 116.545 624.204 119.576 622.522 124.773C621.928 126.562 621.027 128.957 619.818 131.959C618.112 136.173 617.145 138.598 616.916 139.233C614.93 144.486 613.744 147.835 613.358 149.279C612.464 152.396 612.595 153.954 613.749 153.954C615.993 154.416 620.858 149.192 628.342 138.281C629.676 136.318 632.524 132.046 636.885 125.465C639.898 120.905 641.921 117.988 642.953 116.718C644.77 119.2 646.753 120.845 648.904 121.653C639.389 139.492 633.897 150.404 632.424 154.387C631.364 157.275 631.486 158.862 632.795 159.151C633.672 159.324 635.465 158.776 638.173 157.504L638.505 158.198ZM1026.07 85.5824C1028.26 84.0819 1031.19 84.4865 1034.84 86.7963C1038.46 89.2208 1038.97 91.7329 1036.37 94.3287C1029.04 101.661 1022.66 111.564 1017.24 124.032C1012.01 136.213 1010.24 144.672 1011.91 149.405L1008.82 150.617C1006.72 149.405 1006.9 142.593 1009.36 130.181C1012.29 115.345 1017.86 100.478 1026.07 85.5824ZM998.981 112.341C999.318 111.303 999.849 110.292 1000.57 109.309C1002.1 107.29 1003.99 106.28 1006.24 106.28C1008.02 106.28 1009.15 107.029 1009.62 108.532C1010.01 109.86 1009.88 111.216 1009.22 112.602C1007.71 115.661 1005.57 117.279 1002.81 117.45C999.976 117.681 998.7 115.978 998.981 112.341ZM994.613 120.568C996.429 120.684 998.106 120.885 999.646 121.175C1002.71 121.809 1003.54 122.676 1002.15 123.772C999.533 125.793 996.625 131.797 993.429 141.784C989.894 153.042 990.16 160.346 994.227 163.694L992.008 165.513C988.799 164.128 986.81 160.778 986.039 155.467C984.833 147.038 987.693 135.406 994.613 120.568ZM969.015 129.487C971.532 126.776 972.504 124.869 971.932 123.772C971.501 122.791 970.05 122.503 967.573 122.906C961.49 124.061 956.782 126.66 953.448 130.701C952.401 131.163 951.78 130.788 951.584 129.574C955.251 124.725 960.391 121.059 967.002 118.577C974.53 115.692 978.875 117.25 980.037 123.254C980.636 126.832 977.712 130.96 971.263 135.637C961.37 143.256 956.312 149.088 956.097 153.129C955.971 155.322 956.519 156.94 957.742 157.98C958.938 158.902 960.543 159.162 962.556 158.759C967.337 157.719 971.814 153.938 975.987 147.414C977.15 146.953 977.702 147.155 977.644 148.021C977.597 149.059 976.838 150.703 975.368 152.955C973.718 155.669 971.772 157.98 969.528 159.884C963.062 165.484 956.544 166.32 949.977 162.396C948.334 161.414 947.462 159.392 947.359 156.335C947.255 153.274 947.978 150.358 949.528 147.586C951.392 144.296 954.248 141.179 958.097 138.234C963.964 133.79 967.603 130.873 969.015 129.487ZM941.035 127.582C939.104 126.602 936.689 126.457 933.788 127.15C927.949 128.478 922.567 133.269 917.641 141.525C914.782 146.374 913.222 150.473 912.959 153.822C912.747 156.766 913.504 158.788 915.232 159.884C916.917 160.923 918.965 160.923 921.38 159.884C923.94 158.73 926.214 156.709 928.2 153.822C931.874 148.51 933.804 143.573 933.988 139.013C934.116 135.086 933.06 132.778 930.822 132.086L939.11 128.622C940.93 131.739 944.373 132.893 949.438 132.086C949.546 132.549 949.361 133.125 948.888 133.818C947.913 135.086 946.002 136.185 943.156 137.109C943.196 139.765 941.85 143.171 939.119 147.327C936.332 151.483 933.02 155.121 929.181 158.237C924.978 161.645 921.098 163.519 917.542 163.866C913.435 164.33 910.298 162.568 908.132 158.585C906.642 155.526 906.684 150.848 908.256 144.556C910.059 137.398 913.355 131.567 918.138 127.062C923.76 121.809 929.544 119.182 935.492 119.182C938.378 119.182 940.443 119.876 941.689 121.26C943.046 122.878 942.828 124.986 941.035 127.582ZM881.396 120.048C881.32 120.973 879.543 127.93 876.062 140.919C873.371 150.964 873.063 157.17 875.145 159.538C877.245 161.385 881.905 155.956 889.118 143.256C898.389 126.977 903.113 118.721 903.29 118.49C906.511 120.684 909.198 122.185 911.349 122.992C910.648 122.589 908.295 127.062 904.29 136.417C900.162 145.999 898.09 152.437 898.074 155.727C898.051 158.614 898.441 160.172 899.245 160.402C899.775 160.577 901.301 160.056 903.821 158.844L904.153 159.538C903.006 160.807 901.649 161.876 900.091 162.742C896.971 164.474 894.375 164.357 892.303 162.396C890.835 159.682 890.577 155.697 891.522 150.444C892.308 145.999 893.524 142.333 895.162 139.448C892.893 143.603 890.344 147.731 887.516 151.829C881.78 160.085 877.472 164.098 874.589 163.866C871.298 163.866 869.295 161.645 868.583 157.199C867.922 152.984 868.476 147.469 870.244 140.66C870.428 140.832 869.628 142.738 867.848 146.374C865.763 150.703 863.441 154.946 860.885 159.104C853.181 171.689 845.953 179.281 839.192 181.878C827.44 186.093 819.401 185.719 815.074 180.754C813.66 179.138 812.835 177.26 812.599 175.124C812.376 173.162 812.544 172.208 813.107 172.267C818.254 176.539 825.407 176.886 834.562 173.305C844.187 169.496 851.747 162.713 857.249 152.955C863.496 141.93 867.776 131.884 870.088 122.821C870.832 121.55 874.602 120.627 881.396 120.048ZM847.432 125.937C847.385 126.111 846.409 126.198 844.504 126.198C842.096 126.138 839.856 126.515 837.793 127.324C830.659 130.036 824.792 137.599 820.195 150.012C817.854 156.592 818.23 159.71 821.327 159.363C823.64 159.133 826.316 157.545 829.358 154.601C833.484 150.617 837.773 142.045 842.225 128.882L847.498 130.527C843.711 141.439 841.536 147.932 840.979 150.012C840.205 152.898 840.412 155.467 841.598 157.719C843.061 160.664 845.962 159.855 850.301 155.292L850.578 155.554C847.936 160.461 844.772 163.117 841.083 163.519C836.499 164.041 834.379 161.933 834.725 157.199C834.894 154.832 835.509 152.437 836.562 150.012C834.473 153.071 832.062 155.929 829.328 158.585C823.923 163.895 819.663 165.57 816.552 163.606C811.528 160.374 809.761 155.236 811.244 148.193C812.538 142.072 815.851 135.954 821.188 129.835C826.447 123.772 831.559 120.107 836.518 118.837C842.084 117.45 845.722 119.818 847.432 125.937ZM786.421 151.31C784.161 155.006 783.265 157.806 783.737 159.71C784.22 161.789 786.461 160.749 790.461 156.592C794.242 152.609 797.25 147.097 799.484 140.053C792.931 144.036 788.578 147.789 786.421 151.31ZM782.341 119.356L789.851 120.742L789.175 125.852C790.688 124.292 792.526 122.821 794.687 121.435C798.951 118.663 802.707 117.681 805.954 118.49C809.731 120.338 810.929 124.812 809.545 131.913C811.436 131.105 813.149 130.527 814.685 130.181L813.862 132.605C812.496 133.183 810.844 133.961 808.906 134.943C808.164 137.714 806.875 141.122 805.042 145.163C801.502 152.551 797.241 158.007 792.256 161.53C788.249 164.415 784.736 165.57 781.716 164.992C778.637 164.415 777.845 161.876 779.341 157.373C780.699 153.389 782.993 149.664 786.232 146.201C789.219 143.027 794.021 139.65 800.637 136.07C801.345 132.778 801.5 130.585 801.102 129.487C800.253 126.832 797.777 126.602 793.667 128.795C789.238 131.105 785.528 135.148 782.538 140.919C767.603 169.726 759.143 192.993 757.166 210.714C756.948 212.391 753.772 211.958 747.641 209.418L782.341 119.356ZM741.842 145.422C745.26 145.594 750.053 142.246 756.225 135.376C758.92 132.432 760.576 129.922 761.19 127.843C761.939 125.476 761.164 124.061 758.862 123.6C755.8 122.964 751.846 126.515 747.002 134.251C745.22 137.022 743.796 139.65 742.725 142.13C741.614 144.556 741.318 145.654 741.842 145.422ZM741.205 148.453C739.677 153.071 740.308 156.969 743.094 160.143C746.291 163.723 751.01 162.164 757.252 155.467C757.736 154.946 758.128 153.592 758.427 151.397L758.893 148.367C762.335 148.021 764.238 148.885 764.606 150.964C764.218 152.409 762.861 154.457 760.532 157.112C756.702 161.501 752.063 164.156 746.62 165.08C739.555 166.235 734.881 163.752 732.596 157.633C730.736 152.723 730.674 147.675 732.414 142.478C735.586 133.01 741.548 126.168 750.296 121.954C753.937 120.222 757.174 119.559 760.011 119.962C762.962 120.367 764.795 121.924 765.512 124.638C767.284 131.163 764.094 137.252 755.94 142.91C752.956 144.99 749.905 146.575 746.782 147.675C743.832 148.77 741.974 149.032 741.205 148.453ZM713.495 107.405C713.365 107.464 708.624 117.826 699.275 138.495C689.833 159.508 684.788 170.477 684.133 171.4C681.657 171.17 680.119 168.4 679.522 163.088C681.921 156.506 686.483 146.374 693.209 132.692C699.802 119.298 703.516 111.36 704.355 108.878C704.509 108.301 707.555 107.809 713.495 107.405ZM724.342 103.768C724.588 103.71 726.023 103.741 728.648 103.855C731.373 104.027 732.77 104.202 732.839 104.373C733.301 104.373 726.918 121.407 713.692 155.467C711.63 160.143 709.959 165.08 708.683 170.275C706.071 180.667 706.715 187.103 710.609 189.588C715.763 192.763 721.112 193.051 726.657 190.452C732.465 187.739 735.844 182.889 736.79 175.903C737.269 172.615 736.071 169.438 733.197 166.379L734.052 164.474C735.976 165.916 737.627 167.937 739.01 170.535C741.79 175.673 741.787 181.071 739.001 186.73C737.102 190.364 734.25 193.137 730.452 195.042C727.058 196.716 723.254 197.553 719.041 197.553C709.876 197.496 704.142 194.551 701.836 188.72C700.441 184.449 700.21 179.598 701.145 174.172C701.9 169.842 703.984 162.396 707.391 151.829C710.137 143.747 713.571 134.482 717.699 124.032C720.421 117.105 722.635 110.35 724.342 103.768ZM707.586 83.2456C702.242 82.7236 698.144 83.0433 695.295 84.1965C692.299 85.4677 690.955 87.5739 691.262 90.5184C691.692 93.8674 696.403 95.1387 705.396 94.3287C709.949 93.9254 714.423 93.1742 718.815 92.0782C747.511 86.2473 763.23 86.19 765.97 91.9049C768.252 95.8893 767.141 99.8137 762.642 103.681C760.399 105.589 757.909 107.117 755.175 108.271C755.451 107.464 755.315 106.568 754.77 105.589C753.753 103.567 751.304 102.152 747.42 101.344C739.575 99.3807 728.13 99.7563 713.086 102.469C701.28 104.085 694.684 104.894 693.298 104.894C685.509 104.663 681.844 101.429 682.302 95.1953C682.877 88.0945 686.55 83.6489 693.323 81.859C699.036 80.3591 703.791 80.8204 707.586 83.2456ZM1005.37 161.53C1005.65 160.489 1006.13 159.45 1006.81 158.411C1008.18 156.335 1009.97 155.236 1012.2 155.121C1014.04 154.946 1015.28 155.582 1015.93 157.025C1016.46 158.296 1016.42 159.623 1015.81 161.01C1014.53 164.069 1012.5 165.831 1009.72 166.292C1006.84 166.696 1005.39 165.109 1005.37 161.53ZM320.728 135.942C321.103 135.192 322.015 134.585 323.467 134.125C324.877 133.605 326.259 133.403 327.613 133.517C331.014 133.749 333.319 134.846 334.525 136.809C338.945 135.827 341.386 134.902 341.849 134.037C342.506 134.384 342.534 134.933 341.927 135.683C341.411 136.318 340.563 136.895 339.385 137.415C338.542 137.761 337.772 138.05 337.075 138.281L335.244 138.974C336.637 144.112 334.635 149.538 329.236 155.253C323.366 161.431 316.5 164 308.639 162.962C303.932 162.211 301.927 159.785 302.62 155.686C302.678 155.053 304.399 150.346 307.789 141.571C308.503 139.551 310.209 135.452 312.903 129.276C314.408 125.811 314.976 123.904 314.608 123.56C312.113 122.75 309.657 123.616 307.243 126.158L306.31 125.119C306.152 125.061 307.983 123.616 311.8 120.789C315.455 118.133 318.748 117.585 321.681 119.144C323.411 120.008 323.532 122.462 322.044 126.503C321.59 127.775 320.761 129.794 319.554 132.566C318.231 135.568 317.319 137.792 316.816 139.233C316.318 140.445 315.526 142.322 314.443 144.861C313.281 147.461 312.492 149.336 312.067 150.491C310.507 154.591 310.207 157.218 311.167 158.372C314.221 160.334 317.599 159.035 321.304 154.474C324.76 150.203 326.577 145.785 326.76 141.225C323.566 141.515 321.518 140.965 320.62 139.579C319.917 138.541 319.953 137.326 320.728 135.942ZM262.733 126.158C263.782 124.828 265.081 123.646 266.628 122.607C269.638 120.644 272.274 120.499 274.538 122.173C277.47 126.099 276.862 133.432 272.713 144.169C275.612 144.343 279.206 142.351 283.494 138.194C283.73 137.964 285.456 134.761 288.668 128.583C291.675 122.75 293.789 119.489 295.014 118.796C296.196 118.911 297.294 119.229 298.31 119.75C300.226 120.789 300.668 122.26 299.638 124.165C297.417 126.416 294.661 131.959 291.371 140.793C287.687 150.665 287.321 156.121 290.276 157.158C292.908 157.679 295.308 156.582 297.48 153.869L297.742 154.822C296.818 156.552 295.549 158.169 293.933 159.67C290.603 162.614 287.126 163.423 283.498 162.096C280.266 161.23 278.87 158.574 279.31 154.129C279.468 152.684 279.803 150.895 280.317 148.759C280.999 146.218 281.356 144.774 281.39 144.428L271.033 149.799C267.668 157.823 264.986 162.989 262.981 165.299C260.804 164.376 258.428 163.654 255.853 163.134C263.797 144.486 268.301 133.171 269.369 129.188C270.14 126.301 269.859 124.773 268.519 124.598C267.554 124.541 265.772 125.262 263.177 126.763L262.733 126.158ZM233.163 144.082C236.579 144.256 241.375 140.907 247.546 134.037C250.24 131.094 251.894 128.583 252.509 126.503C253.257 124.136 252.482 122.722 250.182 122.26C247.117 121.625 243.167 125.176 238.32 132.912C236.541 135.683 235.112 138.309 234.043 140.793C232.932 143.217 232.638 144.314 233.163 144.082ZM232.524 147.114C230.996 151.732 231.627 155.628 234.412 158.805C237.611 162.384 242.331 160.825 248.57 154.129C249.055 153.608 249.446 152.251 249.745 150.057L250.213 147.026C253.653 146.68 255.558 147.547 255.924 149.625C255.538 151.067 254.18 153.117 251.852 155.773C248.021 160.16 243.383 162.818 237.939 163.74C230.875 164.895 226.201 162.412 223.915 156.294C222.053 151.386 221.994 146.334 223.732 141.139C226.905 131.671 232.867 124.828 241.615 120.616C245.256 118.883 248.493 118.218 251.33 118.622C254.281 119.026 256.114 120.586 256.832 123.299C258.604 129.822 255.414 135.915 247.258 141.571C244.276 143.649 241.224 145.238 238.102 146.334C235.153 147.431 233.292 147.69 232.524 147.114ZM164.482 208.425C179.265 209.694 190.145 202.594 197.121 187.122C192.055 184.698 186.48 183.744 180.396 184.265C175.249 184.725 171.098 185.995 167.944 188.074C162.611 191.596 159.635 195.811 159.012 200.718C158.363 205.51 160.186 208.078 164.482 208.425ZM190.459 160.277C190.565 160.102 190.364 159.67 189.856 158.978L189.072 158.026C196.248 156.236 202.913 150.001 209.066 139.32C211.659 134.817 213.156 130.948 213.561 127.715C213.927 124.194 212.844 122.202 210.314 121.741C207.581 121.164 204.266 122.867 200.37 126.85C197.018 130.314 195.338 132.161 195.335 132.392C194.726 129.276 195.367 126.562 197.257 124.25C198.851 122.173 201.225 120.644 204.375 119.662C207.278 118.739 210.155 118.45 213.006 118.796C216.017 119.2 218.169 120.211 219.469 121.827C222.874 125.927 222.862 130.919 219.437 136.809C216.713 141.37 212.176 146.133 205.823 151.096C213.583 159.41 214.657 169.947 209.043 182.706C211.975 183.397 217.636 184.783 226.028 186.863C231.602 188.247 235.909 189.2 238.944 189.72C246.945 191.105 255.705 191.048 265.23 189.546C265.779 189.431 265.813 189.633 265.328 190.154C264.857 190.614 264.002 191.22 262.761 191.97C259.364 193.878 255.259 195.406 250.448 196.561C235.4 200.14 220.065 198.236 204.437 190.845C199.756 197.542 193.86 202.737 186.751 206.433C178.971 210.475 170.765 212.119 162.134 211.369C155.376 210.735 151.53 208.166 150.602 203.663C149.868 200.371 150.68 196.59 153.038 192.317C155.57 187.815 159.623 184.322 165.196 181.84C173.463 178.144 183.763 177.51 196.104 179.933L199.643 180.626C203.656 168.446 204.459 159.526 202.05 153.869C198.833 156.177 195.943 158.026 193.377 159.41C190.959 160.68 189.985 160.971 190.459 160.277ZM114.104 160.19C111.908 161.922 109.363 163.452 106.467 164.781C100.774 167.493 96.2496 167.896 92.8913 165.992C88.8285 163.279 87.9468 159.353 90.2467 154.214C92.339 149.424 95.5115 146.306 99.7674 144.861C103.545 143.477 108.07 144.371 113.336 147.547C113.452 147.547 113.523 147.604 113.549 147.721L113.937 147.893C114.452 148.124 115.557 148.846 117.253 150.057C125.064 133.836 130.793 122.26 134.44 115.332C126.591 112.735 122.533 108.808 122.269 103.555C122.027 99.2818 124.119 95.6751 128.546 92.73C132.621 90.0169 138.291 88.1407 145.556 87.1014C148.303 86.7561 150.53 86.5261 152.236 86.4095C154.864 83.061 157.371 80.4903 159.757 78.703C162.088 76.6805 164.789 75.7579 167.859 75.9299C171.277 76.1039 172.904 77.8938 172.742 81.3002C172.82 83.3787 172.014 85.7439 170.321 88.401C178.888 91.1148 184.864 96.7144 188.248 105.201C191.39 103.814 194.464 101.822 197.469 99.2265C198.55 98.4166 198.879 99.0242 198.453 101.044C194.064 105.142 190.917 107.625 189.011 108.491C190.851 114.554 190.803 121.625 188.867 129.707C186.917 137.848 183.472 145.207 178.532 151.79C173.15 158.949 166.875 163.941 159.71 166.771C151.569 170.004 143.009 170.062 134.029 166.945C126.215 164.23 120.56 161.199 117.072 157.851C116.013 158.776 115.025 159.555 114.104 160.19ZM179.763 112.302C166.283 117.151 153.731 118.739 142.114 117.064C133.224 134.729 126.158 146.883 120.914 153.521C125.94 159.756 132.047 162.818 139.237 162.701C145.72 162.643 152.23 160.102 158.773 155.081C165.111 150.173 170.224 143.91 174.112 136.289C178.227 128.264 180.11 120.269 179.763 112.302ZM180.194 108.752C180.363 100.15 176.472 94.2035 168.521 90.9111C163.883 96.8 158.817 101.275 153.32 104.334C153.117 104.451 152.929 104.392 152.76 104.162L152.616 103.729C156.906 100.438 161.008 95.7904 164.925 89.7862C162.442 89.1529 159.713 88.7766 156.741 88.6606C154.524 92.4124 150.449 100.293 144.518 112.302C157.108 114.436 169 113.255 180.194 108.752ZM129.883 99.0505C128.609 104.017 131.01 107.769 137.084 110.309C141.979 101.304 146.411 94.1449 150.374 88.8339C145.484 89.4099 141.183 90.5935 137.47 92.3834C133.613 94.2885 131.082 96.5114 129.883 99.0505ZM114.233 155.514C111.531 151.589 108.383 149.653 104.79 149.71C101.136 149.77 98.8395 151.876 97.8978 156.033C96.9125 160.363 98.6167 162.295 103.012 161.835C107.278 161.431 111.017 159.324 114.233 155.514ZM166.356 87.3611C168.867 82.5128 168.214 79.8853 164.397 79.4813C162.97 79.4246 160.859 81.7035 158.061 86.3225C160.874 86.3798 163.64 86.7258 166.356 87.3611Z" fill="#8B231D"/>
</svg>
