<svg width="120" height="120" viewBox="0 0 120 120" fill="none" xmlns="http://www.w3.org/2000/svg">
<path fill-rule="evenodd" clip-rule="evenodd" d="M87.9893 60L65.6054 72.9276L43.2216 85.8552V60V34.1448L65.6054 47.0724L87.9893 60ZM60 0C93.1394 0 120 26.8606 120 60C120 93.1394 93.1394 120 60 120C26.8606 120 0 93.1394 0 60C0 26.8606 26.8606 0 60 0ZM60 8.05248C88.6911 8.05248 111.948 31.3089 111.948 60C111.948 88.6911 88.6911 111.948 60 111.948C31.3089 111.948 8.05248 88.6911 8.05248 60C8.05248 31.3089 31.3089 8.05248 60 8.05248Z" fill="white"/>
</svg>
